<?xml version="1.0" encoding="utf-8"?>
<!-- Generator: Adobe Illustrator 15.1.0, SVG Export Plug-In  -->
<!DOCTYPE svg PUBLIC "-//W3C//DTD SVG 1.1//EN" "http://www.w3.org/Graphics/SVG/1.1/DTD/svg11.dtd" [
	<!ENTITY ns_flows "http://ns.adobe.com/Flows/1.0/">
]>
<svg version="1.1"
	 xmlns="http://www.w3.org/2000/svg" xmlns:xlink="http://www.w3.org/1999/xlink" xmlns:a="http://ns.adobe.com/AdobeSVGViewerExtensions/3.0/"
	 x="0px" y="0px" width="192px" height="42px" viewBox="-2.247 -6.371 192 42"
	 overflow="visible" enable-background="new -2.247 -6.371 192 42" xml:space="preserve">
<defs>
</defs>
<path fill="#EC1E24" d="M41.798,24.611c-1.797-0.302-3.217-0.741-4.258-1.316v-5.801c1.125,0.656,2.502,1.213,4.135,1.666
	c1.632,0.452,3.106,0.678,4.423,0.678c0.795,0,1.372-0.047,1.728-0.143c0.355-0.096,0.535-0.295,0.535-0.597
	c0-0.275-0.171-0.481-0.514-0.619c-0.343-0.136-0.981-0.329-1.913-0.575l-1.893-0.535c-1.673-0.494-2.998-1.022-3.971-1.583
	c-0.973-0.562-1.687-1.248-2.139-2.059c-0.453-0.809-0.679-1.831-0.679-3.064c0-2.222,0.878-3.875,2.633-4.958
	c1.755-1.083,4.156-1.626,7.201-1.626c1.453,0,3.024,0.159,4.711,0.473c1.688,0.315,2.942,0.734,3.765,1.255v5.72
	c-0.85-0.549-1.989-1.021-3.415-1.42C50.72,9.709,49.417,9.51,48.237,9.51c-1.619,0-2.427,0.274-2.427,0.823
	c0,0.246,0.198,0.452,0.597,0.617c0.396,0.165,1.09,0.356,2.078,0.576l1.728,0.412c1.783,0.466,3.154,1.001,4.114,1.604
	c0.96,0.604,1.632,1.31,2.017,2.118c0.383,0.811,0.576,1.818,0.576,3.024c0,1.948-0.858,3.499-2.572,4.651
	c-1.715,1.15-4.177,1.727-7.386,1.727C45.316,25.063,43.595,24.914,41.798,24.611"/>
<path fill="#EC1E24" d="M61.547,23.314c-1.522-1.165-2.284-2.831-2.284-4.998c0-2.223,0.74-3.916,2.222-5.082
	c1.481-1.166,3.635-1.749,6.46-1.749c1.015,0,2.042,0.11,3.086,0.33c1.042,0.219,1.919,0.493,2.634,0.823v-0.371
	c0-0.906-0.447-1.591-1.338-2.057c-0.892-0.467-2.133-0.7-3.724-0.7c-2.387,0-4.581,0.48-6.583,1.44V5.518
	c0.905-0.438,2.084-0.788,3.539-1.049c1.453-0.26,3.003-0.391,4.649-0.391c3.812,0,6.72,0.727,8.724,2.182
	c2.001,1.454,3.004,3.511,3.004,6.172v12.015h-7.777v-1.564c-0.658,0.658-1.563,1.188-2.715,1.584
	c-1.152,0.398-2.428,0.597-3.827,0.597C65.092,25.063,63.069,24.481,61.547,23.314 M72.225,19.879
	c0.629-0.273,1.111-0.632,1.44-1.069v-1.523c-1.016-0.658-2.167-0.987-3.457-0.987c-0.768,0-1.364,0.179-1.789,0.535
	c-0.427,0.356-0.639,0.851-0.639,1.481c0,0.603,0.206,1.084,0.617,1.44c0.413,0.356,1.002,0.535,1.769,0.535
	C70.908,20.292,71.593,20.154,72.225,19.879"/>
<path fill="#EC1E24" d="M85.021,4.696h7.941V6.63c0.851-0.824,1.852-1.454,3.004-1.894c1.151-0.438,2.357-0.659,3.621-0.659
	c2.824,0,4.902,0.72,6.232,2.162c1.332,1.438,1.996,3.421,1.996,5.945v12.262h-8.27v-11.11c0-0.932-0.2-1.639-0.598-2.119
	c-0.398-0.479-1.035-0.721-1.912-0.721c-1.646,0-2.908,0.741-3.786,2.223v11.727h-8.229V4.696z"/>
<path fill="#EC1E24" d="M115.329,23.727c-1.879-0.893-3.326-2.133-4.342-3.725c-1.015-1.59-1.522-3.401-1.522-5.431
	c0-2.003,0.508-3.8,1.522-5.391c1.016-1.591,2.463-2.84,4.342-3.745c1.878-0.905,4.079-1.358,6.604-1.358
	c2.522,0,4.73,0.453,6.624,1.358c1.892,0.904,3.346,2.154,4.361,3.745c1.015,1.591,1.522,3.388,1.522,5.391
	c0,2.029-0.508,3.841-1.522,5.431c-1.016,1.592-2.47,2.832-4.361,3.725c-1.894,0.89-4.102,1.336-6.624,1.336
	C119.408,25.063,117.207,24.617,115.329,23.727 M124.895,17.575c0.741-0.74,1.111-1.742,1.111-3.003c0-1.263-0.37-2.257-1.111-2.984
	c-0.74-0.727-1.728-1.091-2.961-1.091c-1.235,0-2.216,0.364-2.943,1.091c-0.728,0.727-1.091,1.721-1.091,2.984
	c0,1.261,0.363,2.263,1.091,3.003c0.728,0.741,1.708,1.11,2.943,1.11C123.167,18.685,124.154,18.316,124.895,17.575"/>
<path fill="#EC1E24" d="M142.241,23.727c-1.879-0.893-3.328-2.133-4.341-3.725c-1.016-1.59-1.523-3.401-1.523-5.431
	c0-2.003,0.508-3.8,1.523-5.391c1.013-1.591,2.462-2.84,4.341-3.745c1.878-0.905,4.079-1.358,6.603-1.358s4.732,0.453,6.625,1.358
	c1.894,0.904,3.348,2.154,4.361,3.745c1.015,1.591,1.523,3.388,1.523,5.391c0,2.029-0.509,3.841-1.523,5.431
	c-1.014,1.592-2.468,2.832-4.361,3.725c-1.893,0.89-4.102,1.336-6.625,1.336S144.119,24.617,142.241,23.727 M151.808,17.575
	c0.739-0.74,1.11-1.742,1.11-3.003c0-1.263-0.371-2.257-1.11-2.984c-0.74-0.727-1.729-1.091-2.964-1.091
	c-1.233,0-2.215,0.364-2.94,1.091c-0.728,0.727-1.091,1.721-1.091,2.984c0,1.261,0.363,2.263,1.091,3.003
	c0.726,0.741,1.707,1.11,2.94,1.11C150.079,18.685,151.067,18.316,151.808,17.575"/>
<polygon fill="#EC1E24" points="163.167,4.696 171.397,4.696 171.397,12.267 177.24,4.696 186.662,4.696 179.297,14.201 
	187.773,24.447 178.351,24.447 171.397,16.051 171.397,24.447 163.167,24.447 "/>
<rect fill="#EC1E24" width="29.259" height="29.258"/>
<path fill="#FFFFFF" d="M22.028,15.337c-0.34-0.091-0.689-0.167-1.072-0.239c-0.01-0.002-0.955-0.174-2.243-0.41l-0.001-0.002
	l-7.987-1.466c0.175-0.637,0.482-1.175,0.923-1.616c0.731-0.731,1.72-1.097,2.962-1.097s2.237,0.366,2.982,1.097
	c0.287,0.281,0.517,0.602,0.692,0.96h7.602V3.376h-9.185v1.794c-1.466-0.879-3.952-1.939-6.369-2.107
	c-0.064-0.005-0.319-0.02-0.382-0.022C9.837,3.038,9.695,3.03,9.286,3.03c-0.221,0-0.621,0.022-1.062,0.062
	c0,0-0.619,0.061-1.131,0.224C4.785,3.967,3.095,6.086,3.095,8.6c0,2.532,1.714,4.662,4.043,5.297
	c0.619,0.167,1.091,0.25,1.165,0.263c0.01,0.002,0.923,0.168,2.178,0.397v0.004l8.041,1.475c-0.18,0.624-0.489,1.155-0.931,1.597
	c-0.746,0.745-1.74,1.12-2.982,1.12s-2.231-0.375-2.962-1.12c-0.272-0.276-0.493-0.59-0.664-0.938H3.374v9.188h9.185v-1.795
	c1.466,0.879,3.952,1.941,6.369,2.109c0.064,0.004,0.318,0.02,0.382,0.021c0.112,0.004,0.254,0.011,0.663,0.011
	c0.221,0,0.622-0.021,1.063-0.062c0,0,0.619-0.062,1.132-0.226c2.306-0.649,3.997-2.768,3.997-5.284
	C26.164,18.092,24.404,15.939,22.028,15.337"/>
</svg>
