<?xml version="1.0" encoding="utf-8"?>
<!-- Generator: Adobe Illustrator 23.0.1, SVG Export Plug-In . SVG Version: 6.00 Build 0)  -->
<svg version="1.1" id="Layer_1" xmlns="http://www.w3.org/2000/svg" xmlns:xlink="http://www.w3.org/1999/xlink" x="0px" y="0px"
	 viewBox="0 0 215 60" style="enable-background:new 0 0 215 60;" xml:space="preserve">
<style type="text/css">
	.st0{fill:#272661;}
	.st1{fill:#E83230;}
</style>
<g>
	<path class="st0" d="M62.2,41.3h-2.3v8.4h-3.2v-8.4h-2.8v-2.7h9.2L62.2,41.3z"/>
	<path class="st0" d="M67.3,43.3h3.4v-4.7h3.2v11.2h-3.2V44L70,46h-2.7v3.8h-3.1V38.6h3.1V43.3z"/>
	<path class="st0" d="M79.2,48.2l-0.4,1.6h-3.3l2.5-8.4h-1.5l0.9-2.7h5.9l3.1,11.2H83L82,46.2l-0.7,2L79.2,48.2z M79.9,45.5h2
		l-1-3.9L79.9,45.5z"/>
	<path class="st0" d="M93.7,41.3h-1.4v5.8h1.5v2.7h-6.2v-2.7h1.5v-5.8h-1.5v-2.7h7L93.7,41.3z"/>
	<path class="st0" d="M108.2,49.8h-6.6V38.6h3.2v8.5h4.3L108.2,49.8z"/>
	<path class="st0" d="M113.6,41.3v1.8h3.8l-0.8,2.4h-3v1.5h5.1v2.7h-8.3V38.6h8.5l-0.9,2.7H113.6z"/>
	<path class="st0" d="M123.7,48.2l-0.4,1.6h-3.3l2.5-8.4H121l0.9-2.7h5.9l3.1,11.2h-3.3l-0.9-3.7l-0.7,2L123.7,48.2z M124.4,45.5h2
		l-1-3.9L124.4,45.5z"/>
	<path class="st0" d="M141,47.5c-0.5,1.2-1.9,2.5-4.6,2.5c-2,0-5.2-1.2-5.2-4v-3.3c0-2.5,2.3-4.3,5.2-4.3c1.6,0,3.2,0.3,4.6,1
		l-1,2.5c-1.1-0.6-2.4-0.9-3.7-0.8c-1.1,0-2,0.8-2,1.9v2.9c0,0.8,0.8,1.4,1.9,1.4c0.9,0,1.4-0.3,1.6-0.8v-0.9H136l0.8-2.4h4.2V47.5z
		"/>
	<path class="st0" d="M145.7,44.8c0,1.7,0.8,2.2,1.6,2.2c0.8,0,1.5-0.5,1.5-2.2v-6.2h3.2v6c0,4-2.3,5.4-4.7,5.4
		c-2.4,0-4.7-1.4-4.7-5.4v-6h3.1V44.8z"/>
	<path class="st0" d="M157.1,41.3v1.8h3.8l-0.8,2.4h-3v1.5h5.1v2.7h-8.3V38.6h8.5l-0.9,2.7H157.1z"/>
	<polygon class="st1" points="67.8,10.6 51.8,10.6 51.8,14.1 57.7,14.1 57.7,29.2 61.9,29.2 61.9,14.1 67.8,14.1 	"/>
	<path class="st1" d="M78.6,10c-5.4,0-9.8,4.4-9.8,9.9c0,5.4,4.4,9.8,9.9,9.8c5.4,0,9.8-4.4,9.8-9.8C88.4,14.4,84,10,78.6,10
		C78.6,10,78.6,10,78.6,10 M83.4,22.8c-0.7,1.7-2.1,2.8-3.9,3.2c-0.6,0.1-1.3,0.1-1.9,0c-1.7-0.3-3.2-1.5-3.8-3.2
		c-0.8-1.9-0.8-4,0-6c0.7-1.6,2.1-2.8,3.9-3.1c0.6-0.1,1.3-0.1,1.9,0c1.7,0.3,3.2,1.5,3.8,3.1C84.1,18.8,84.1,20.9,83.4,22.8"/>
	<polyline class="st1" points="101.9,19.5 100.1,22.3 100.1,29.2 95.9,29.2 95.9,22.3 88.5,10.6 93.4,10.6 98,18.6 102.6,10.6 
		107.6,10.6 101.9,19.5 	"/>
	<path class="st1" d="M107.6,19.9c0-5.4,4.4-9.9,9.8-9.9c5.4,0,9.9,4.4,9.9,9.8c0,5.4-4.4,9.9-9.8,9.9c0,0,0,0,0,0
		C112.1,29.7,107.7,25.3,107.6,19.9C107.6,19.9,107.6,19.9,107.6,19.9 M117.5,26.1c0.3,0,0.6,0,1-0.1c1.7-0.3,3.2-1.5,3.9-3.2
		c0.7-1.9,0.7-4,0-6c-0.7-1.6-2.1-2.8-3.9-3.1c-0.6-0.1-1.3-0.1-1.9,0c-1.7,0.3-3.2,1.5-3.9,3.1c-0.8,1.9-0.8,4,0,6
		c0.7,1.7,2.1,2.8,3.9,3.2C116.8,26.1,117.2,26.1,117.5,26.1"/>
	<path class="st1" d="M157.1,25.1h-7.9l-1.5,4.1H143l7.5-18.5h5.2l7.6,18.5h-4.7L157.1,25.1z M155.9,21.8l-2.7-7.3l-2.7,7.3H155.9z"
		/>
	<polygon class="st1" points="144.3,10.6 128.3,10.6 128.3,14.1 134.2,14.1 134.2,29.2 138.4,29.2 138.4,14.1 144.3,14.1 	"/>
</g>
</svg>
