<?xml version="1.0" encoding="utf-8"?>
<!-- Generator: Adobe Illustrator 23.0.1, SVG Export Plug-In . SVG Version: 6.00 Build 0)  -->
<svg version="1.1" id="Layer_1" xmlns="http://www.w3.org/2000/svg" xmlns:xlink="http://www.w3.org/1999/xlink" x="0px" y="0px"
	 viewBox="0 0 2158 1371" style="enable-background:new 0 0 2158 1371;" xml:space="preserve">
<style type="text/css">
	.st0{fill:#01BA5C;}
	.st1{fill:#00AE55;}
	.st2{fill:#FFFFFF;}
	.st3{opacity:0.102;enable-background:new    ;}
	.st4{fill:none;stroke:#FFFFFF;stroke-width:7.89;}
	.st5{opacity:0.1;enable-background:new    ;}
	.st6{fill:#CECECE;}
	.st7{fill:url(#SVGID_1_);}
	.st8{fill:#282561;}
	.st9{fill:#E92F2F;}
	.st10{fill:url(#SVGID_2_);}
	.st11{fill:#B31F24;}
	.st12{fill:none;}
	.st13{clip-path:url(#SVGID_4_);fill:url(#SVGID_5_);}
	.st14{clip-path:url(#SVGID_7_);fill:url(#SVGID_8_);}
	.st15{fill:url(#SVGID_9_);}
	.st16{fill:url(#SVGID_10_);}
	.st17{clip-path:url(#SVGID_12_);fill:url(#SVGID_13_);}
	.st18{clip-path:url(#SVGID_15_);fill:url(#SVGID_16_);}
</style>
<g transform="translate(-1 4)">
	<g transform="translate(.605 .16)">
		<g transform="translate(0 59)">
			<polyline class="st0" points="1767.1,0.1 391.9,0.1 0.7,1307.3 2158.3,1307.3 1767.1,0.1 			"/>
			<g transform="translate(35.016 56)">
				<path class="st1" d="M1043.8,737.5c-48.9,0-95.8,7.8-139,22c-43.5,14.3-83.7,35.3-118.6,61.6c-35.4,26.8-65.6,59.2-88.3,96.1
					c-23.2,37.7-38.8,80.2-44.1,126c-2.1,18.3-2.5,36.5-1.3,54.4c1.2,18.1,4.1,35.9,8.6,53.3c4.5,17.6,10.6,34.8,18.2,51.4
					c7.7,16.8,16.9,32.9,27.5,48.4h277.7c-10.5-2.4-20.7-5.5-30.6-9.2s-19.5-8-28.7-12.8c-9.2-4.9-18-10.3-26.4-16.3
					s-16.3-12.5-23.8-19.5c-11-10.4-20.6-21.5-28.8-33.3c-8.1-11.7-14.8-24-19.9-36.8c-5.1-12.7-8.8-25.8-10.9-39.1
					c-2.1-13.3-2.7-26.8-1.8-40.4c0.9-13.5,3.3-26.7,7.1-39.5c3.8-12.6,8.9-24.9,15.3-36.5c6.4-11.6,14-22.6,22.9-32.9
					c8.8-10.3,18.7-19.8,29.8-28.6c10.8-8.6,22.3-16.2,34.4-22.7s24.7-12,37.8-16.4s26.6-7.8,40.4-10s28-3.4,42.4-3.4
					s28.5,1.1,42.4,3.4c13.9,2.2,27.4,5.6,40.5,10s25.8,9.9,37.8,16.4c12.1,6.5,23.6,14.1,34.4,22.7c11.1,8.8,21,18.4,29.8,28.6
					c8.8,10.3,16.5,21.3,22.9,32.9c6.4,11.6,11.6,23.8,15.4,36.5s6.2,25.9,7.2,39.5c0.9,13.6,0.3,27.1-1.8,40.4
					c-2.1,13.4-5.8,26.5-10.9,39.1c-5.2,12.8-11.8,25.1-19.9,36.8c-8.1,11.8-17.8,23-28.8,33.3c-7.4,7-15.4,13.5-23.8,19.5
					s-17.2,11.4-26.4,16.3c-9.2,4.9-18.8,9.1-28.7,12.8c-9.9,3.7-20.1,6.7-30.6,9.2H1381c10.6-15.5,19.8-31.6,27.4-48.4
					c7.6-16.6,13.7-33.8,18.2-51.4c4.4-17.4,7.3-35.2,8.5-53.3c1.2-17.9,0.8-36.1-1.3-54.4c-5.3-45.8-20.9-88.3-44.2-126
					c-22.7-36.9-52.9-69.3-88.3-96.1c-34.8-26.3-75-47.3-118.6-61.6C1139.6,745.2,1092.8,737.5,1043.8,737.5"/>
				<path class="st1" d="M1043.8,529c-82.3,0-161.5,12.2-234.9,34.6c-74.6,22.8-144.5,56.3-206.5,98.9
					c-63.8,43.8-120,97.7-164.6,159.9c-46.4,64.7-80.8,139-97.9,220.8c-3.6,17.2-6.4,34.4-8.3,51.5c-2,17.3-3.1,34.6-3.5,51.9
					c-0.3,17.4,0.2,34.8,1.5,52.1c1.3,17.4,3.5,34.8,6.4,52h181.6c-0.3-1-0.7-2-1-3s-0.7-2-1-3s-0.7-2-1-3s-0.6-2-1-3
					c-5.1-16.3-9.2-32.6-12.3-49.1c-3.1-16.3-5.2-32.7-6.3-49.1c-1.1-16.3-1.3-32.5-0.5-48.8c0.8-16.1,2.5-32.3,5.1-48.4
					c2.6-16,6-31.6,10.3-47c4.2-15.2,9.3-30.2,15.1-44.9c5.8-14.5,12.4-28.8,19.7-42.7c7.3-13.8,15.3-27.3,24.1-40.5
					c8.4-12.6,17.4-24.8,26.9-36.5s19.5-22.9,30.1-33.7c10.5-10.7,21.5-21.1,33.1-31c11.5-9.8,23.5-19.3,35.9-28.3
					c12.4-8.9,25.1-17.3,38.1-25.1c12.9-7.8,26.2-15.1,39.8-21.8c13.5-6.7,27.3-12.9,41.4-18.6c14.1-5.7,28.4-10.8,43-15.4
					c15-4.8,30.2-8.9,45.5-12.5s30.7-6.5,46.3-8.9c15.5-2.4,31.2-4.1,47-5.3s31.7-1.8,47.7-1.8s31.9,0.6,47.7,1.8
					c15.8,1.2,31.5,3,47,5.3c15.6,2.4,31,5.3,46.3,8.9c15.3,3.6,30.5,7.7,45.5,12.5c14.6,4.6,29,9.8,43,15.4
					c14.1,5.7,27.9,11.9,41.4,18.6c13.6,6.8,26.8,14,39.8,21.8s25.7,16.2,38.1,25.1c12.5,9,24.5,18.4,36,28.3
					c11.6,9.9,22.6,20.2,33.1,31c10.6,10.8,20.6,22.1,30.1,33.7c9.5,11.7,18.5,23.9,26.9,36.5c8.8,13.2,16.8,26.7,24.1,40.5
					c7.4,13.9,13.9,28.1,19.7,42.7c5.9,14.7,10.9,29.6,15.1,44.9c4.3,15.4,7.7,31.1,10.3,47c2.6,16.1,4.3,32.2,5.1,48.4
					c0.8,16.3,0.6,32.6-0.5,48.8c-1.1,16.4-3.2,32.8-6.3,49.1c-3.1,16.5-7.2,32.8-12.3,49.1c-0.3,1-0.6,2-1,3c-0.3,1-0.7,2-1,3
					s-0.7,2-1,3s-0.7,2-1,3h181.6c3-17.2,5.1-34.5,6.4-52c1.3-17.3,1.8-34.6,1.4-52.1c-0.3-17.3-1.5-34.6-3.5-51.9
					c-2-17.2-4.8-34.3-8.4-51.5c-17.2-81.8-51.6-156.1-98-220.8c-44.6-62.1-100.9-116-164.7-159.9c-62-42.6-131.9-76.1-206.5-98.9
					C1205.2,541.2,1126,529,1043.8,529"/>
				<path class="st1" d="M1043.7,347.2c-93,0-183.2,10.8-268.7,30.9c-86.8,20.4-170.2,50.8-247.7,89.8
					c-79.8,40.1-154.6,89.9-221.4,148.3C236.2,677,174.5,747.7,124.5,827.3L0.7,1250.6h163.6c-0.9-17.7-1.1-35.4-0.6-53.1
					c0.5-17.5,1.6-34.9,3.5-52.3c1.8-17.2,4.2-34.4,7.3-51.5c3-16.9,6.7-33.8,11-50.5c6.4-25,14-49.4,22.9-73.3
					c8.7-23.5,18.6-46.5,29.7-68.8c10.9-22.1,22.9-43.6,36-64.5c12.9-20.7,26.9-40.8,41.9-60.4c7.1-9.3,14.5-18.5,22.1-27.5
					c7.5-9,15.3-17.8,23.3-26.4c7.9-8.6,16-17.1,24.3-25.3s16.7-16.3,25.3-24.2c8.5-7.8,17.1-15.4,26-22.8
					c8.8-7.4,17.7-14.7,26.8-21.7s18.3-13.9,27.6-20.6c9.3-6.7,18.8-13.1,28.3-19.4c9.5-6.3,19.2-12.3,29-18.3
					c9.7-5.9,19.6-11.6,29.6-17.1c9.9-5.5,20-10.8,30.2-16c10.1-5.1,20.3-10,30.6-14.8s20.8-9.3,31.3-13.7s21.1-8.6,31.8-12.6
					c10.6-4,21.4-7.8,32.1-11.4c10.8-3.6,21.6-7,32.4-10.2c22.5-6.6,45.1-12.4,67.9-17.3c22.7-4.9,45.6-9,68.6-12.3
					s46.1-5.7,69.5-7.3c23.3-1.6,46.8-2.4,70.4-2.4s47.1,0.8,70.4,2.4s46.5,4.1,69.5,7.3c23,3.3,45.9,7.4,68.6,12.3
					c22.8,4.9,45.5,10.7,67.9,17.3c10.9,3.2,21.7,6.6,32.4,10.2c10.8,3.6,21.5,7.4,32.1,11.4c10.7,4,21.3,8.2,31.8,12.6
					c10.5,4.4,21,9,31.3,13.7s20.5,9.7,30.6,14.8c10.2,5.1,20.2,10.5,30.2,16s19.9,11.2,29.6,17.1c9.8,5.9,19.5,12,29,18.3
					c9.6,6.3,19,12.8,28.3,19.4c9.4,6.7,18.6,13.6,27.6,20.6c9.1,7.1,18.1,14.3,26.9,21.7s17.5,15.1,26,22.8
					c8.6,7.9,17.1,16,25.3,24.2c8.3,8.3,16.4,16.7,24.3,25.3c8,8.7,15.7,17.5,23.3,26.4c7.6,9,15,18.2,22.1,27.5
					c15,19.6,29,39.7,42,60.4c13.1,20.9,25.2,42.5,36.1,64.5c11.1,22.4,21,45.3,29.8,68.8c8.9,23.8,16.5,48.3,22.9,73.3
					c4.3,16.8,8,33.6,11,50.5c3.1,17.1,5.5,34.3,7.4,51.5c1.8,17.4,3,34.8,3.5,52.3c0.5,17.7,0.3,35.4-0.5,53.1h161l-125.7-430
					c-50.3-78.4-112.1-148.2-181.4-208.1c-66.6-57.6-141.1-106.7-220.5-146.3c-77.2-38.5-160.1-68.4-246.3-88.6
					C1225.7,357.9,1136.1,347.2,1043.7,347.2"/>
				<path class="st1" d="M1043.6,187.2c-72.4,0-143.4,5-212.3,14.5c-69.5,9.6-137.6,23.9-203.6,42.6c-67,18.9-132.4,42.4-195.5,70.1
					c-64.4,28.3-127,61.3-186.6,98.6l-45.3,155.1c1-0.9,2.1-1.8,3.1-2.7s2.1-1.8,3.1-2.7s2.1-1.8,3.1-2.6c1-0.9,2.1-1.8,3.2-2.6
					c11.8-9.8,23.8-19.4,36-28.7c12.1-9.3,24.4-18.4,36.9-27.2c12.4-8.8,24.9-17.4,37.6-25.7c12.6-8.3,25.4-16.3,38.3-24.1
					c12.8-7.8,25.8-15.3,38.9-22.6c13-7.3,26.2-14.3,39.5-21.1c13.2-6.8,26.6-13.3,40-19.6c13.4-6.3,26.9-12.3,40.4-18.1
					c13.6-5.8,27.4-11.4,41.2-16.8c13.8-5.3,27.6-10.4,41.6-15.3c13.9-4.8,27.9-9.5,41.9-13.8c14-4.4,28.1-8.5,42.2-12.4
					c14.3-3.9,28.7-7.6,43.1-11.1c14.4-3.4,28.9-6.6,43.4-9.6s29.1-5.7,43.7-8.1c14.6-2.5,29.2-4.7,43.8-6.7c15-2,30-3.8,45.2-5.3
					c15.1-1.5,30.2-2.8,45.4-3.8s30.4-1.8,45.6-2.3c15.2-0.5,30.5-0.8,45.7-0.8s30.5,0.3,45.7,0.8s30.4,1.3,45.6,2.3
					s30.3,2.3,45.4,3.8s30.2,3.3,45.2,5.3c14.6,2,29.2,4.2,43.8,6.7c14.6,2.5,29.2,5.2,43.7,8.1c14.5,3,29,6.2,43.5,9.6
					s28.9,7.1,43.2,11.1c14.1,3.9,28.2,8,42.2,12.4s28,9,41.9,13.8c14,4.9,27.8,10,41.6,15.3c13.8,5.4,27.6,10.9,41.2,16.8
					c13.6,5.8,27.1,11.8,40.5,18.1c13.5,6.3,26.8,12.8,40,19.6c13.3,6.8,26.5,13.8,39.5,21.1c13.1,7.3,26.1,14.8,38.9,22.6
					c12.9,7.8,25.7,15.9,38.3,24.1c12.7,8.3,25.3,16.9,37.7,25.7c12.5,8.8,24.8,17.9,36.9,27.2c12.2,9.4,24.2,18.9,36,28.7
					c0.8,0.7,1.6,1.4,2.5,2c0.8,0.7,1.6,1.4,2.5,2.1c0.8,0.7,1.6,1.4,2.5,2.1c0.8,0.7,1.6,1.4,2.4,2.1l-45.1-154.2
					c-59.5-37.1-121.9-69.8-186.2-97.9c-62.9-27.5-128.2-50.9-195-69.6c-65.8-18.5-133.7-32.7-203-42.3
					C1186.5,192.2,1115.8,187.2,1043.6,187.2"/>
				<path class="st1" d="M1043.6,45.4c-64.7,0-128.4,3.2-190.8,9.4c-62.7,6.3-124.6,15.6-185.2,27.8
					c-61.2,12.3-121.6,27.6-180.8,45.8c-60,18.4-119.2,39.9-177,64.2l-29.7,101.6c11-5.5,22-11,33.1-16.3s22.2-10.4,33.3-15.5
					c11.1-5,22.3-9.9,33.5-14.6c11.2-4.7,22.3-9.3,33.6-13.8c16.7-6.6,33.4-13,50.3-19.1c16.8-6.1,33.7-11.9,50.6-17.4
					c16.9-5.5,33.8-10.7,50.8-15.7c16.9-4.9,33.9-9.6,51-14c17.3-4.5,34.6-8.6,52-12.5s34.8-7.5,52.3-10.9
					c17.4-3.3,34.9-6.4,52.4-9.2s35-5.3,52.5-7.5c17.9-2.3,36-4.3,54.1-6s36.2-3.1,54.3-4.3c18.1-1.1,36.3-2,54.5-2.6
					s36.4-0.9,54.6-0.9s36.4,0.3,54.6,0.9s36.4,1.4,54.5,2.6c18.1,1.1,36.3,2.6,54.3,4.3c18.1,1.7,36.1,3.7,54.1,6
					c17.5,2.2,35,4.7,52.5,7.5s35,5.8,52.4,9.2c17.5,3.3,34.9,7,52.3,10.9s34.8,8.1,52.1,12.5c17,4.4,34,9.1,51,14
					c17,5,34,10.2,50.9,15.7c17,5.5,33.8,11.3,50.6,17.4c16.9,6.1,33.7,12.5,50.3,19.1c11,4.4,22.1,8.9,33,13.6
					c11,4.7,22,9.5,32.9,14.4c11,4.9,21.9,10,32.8,15.2s21.8,10.5,32.6,16L1775,191.8c-57.6-24.2-116.7-45.5-176.5-63.8
					c-59-18-119.2-33.3-180.3-45.5c-60.4-12.1-122.1-21.4-184.6-27.6C1171.5,48.6,1108.1,45.4,1043.6,45.4 M751.8,0.5H439
					c-6.7,1.8-13.3,3.7-20,5.6s-13.3,3.8-19.9,5.8s-13.3,4-19.9,6s-13.3,4.1-19.9,6.2l-23.4,80c18-6.5,36.1-12.8,54.2-18.8
					c18-6,36.2-11.7,54.3-17.2c18.1-5.5,36.2-10.7,54.4-15.6c18.1-4.9,36.2-9.6,54.4-14c16.5-4,33-7.8,49.5-11.4s33.1-6.9,49.6-10.1
					s33.1-6.1,49.7-8.9C718.7,5.4,735.2,2.9,751.8,0.5 M1648.1,0.5h-312.8c16.6,2.3,33.2,4.9,49.7,7.6c16.6,2.8,33.2,5.7,49.7,8.9
					c16.6,3.2,33.1,6.5,49.6,10.1c16.6,3.6,33.1,7.4,49.5,11.4c18,4.4,36,9,53.9,13.9c18,4.9,36,10,53.9,15.4
					c18,5.4,36,11.1,53.9,17c18,6,35.9,12.2,53.7,18.6L1726,23.5c-6.5-2-13-4.1-19.4-6c-6.5-2-13-3.9-19.5-5.9
					c-6.5-1.9-13-3.8-19.5-5.7C1661.2,4.1,1654.7,2.3,1648.1,0.5"/>
			</g>
			<path class="st2" d="M1755.2,57.1H402.1L36.6,1307.2h7.9l59.3-204.7h735.7c-1.2,22.7,2,44.8,8.9,65.7c7,21.2,17.8,41.1,31.9,59.1
				c14.2,18.2,31.8,34.4,51.9,47.9c20.3,13.6,43.3,24.5,68.2,32h36.9c-28.4-4.5-54.9-13.4-78.7-26c-23.6-12.5-44.2-28.4-61.2-46.9
				c-16.8-18.3-29.8-39.2-38.3-61.6c-8.4-22.1-12.4-45.8-11.2-70.2h204.9c0.5,2.7,1.5,5.3,3,7.6c1.5,2.3,3.5,4.4,5.8,6.1
				s5,3.1,7.9,4.1s6.1,1.5,9.4,1.5s6.5-0.5,9.4-1.5s5.6-2.3,7.9-4.1c2.3-1.7,4.3-3.8,5.8-6.1c1.5-2.3,2.5-4.9,3-7.6h205
				c1.2,24.4-2.8,48.1-11.2,70.2c-8.5,22.4-21.5,43.3-38.3,61.6c-16.9,18.5-37.6,34.5-61.1,46.9c-23.7,12.5-50.3,21.5-78.6,26h36.9
				c24.9-7.5,47.8-18.4,68.2-32c20.2-13.5,37.7-29.7,51.9-47.9c14.1-18,24.9-37.9,31.9-59.1c6.9-20.9,10-43,8.9-65.7h735.7
				l59.4,204.7h6.8L1755.2,57.1z M1751.5,59.7l8.5,29.5c-6.7-0.3-13.2-1.4-19.3-3c-6.1-1.6-11.9-3.8-17-6.4s-9.6-5.7-13.2-9.1
				s-6.3-7-7.9-10.9L1751.5,59.7L1751.5,59.7z M911,59.7h335.9l3.6,49.3h-343L911,59.7z M905.2,59.7l-4,52.9h355.6l-4-52.9h130.1
				l12.9,98.2H762.3l12.9-98.2L905.2,59.7L905.2,59.7z M1195.3,161.8c-4.4,7.4-10.5,14.2-18.1,20.2c-7.6,6.1-16.7,11.4-26.8,15.8
				c-10.2,4.4-21.5,7.9-33.5,10.3c-12,2.4-24.7,3.7-37.8,3.7s-25.8-1.3-37.8-3.7s-23.3-5.9-33.5-10.3c-10.2-4.4-19.2-9.7-26.8-15.8
				s-13.7-12.9-18.1-20.2H1195.3L1195.3,161.8z M406.5,59.7h49c-1.6,3.9-4.3,7.6-7.9,10.9c-3.6,3.4-8.1,6.5-13.2,9.1
				s-10.9,4.8-17,6.4c-6.2,1.6-12.7,2.7-19.4,3L406.5,59.7z M1105.1,1095.3c-0.5-2.7-1.6-5.2-3.1-7.5s-3.5-4.3-5.8-6s-4.9-3-7.8-4
				c-2.9-0.9-6-1.4-9.2-1.4s-6.4,0.5-9.2,1.4c-2.9,0.9-5.5,2.3-7.8,4s-4.3,3.7-5.8,6s-2.6,4.8-3.1,7.5H848.7
				c2.4-26.7,10.8-51.8,23.9-74.3c12.9-22.2,30.5-41.8,51.3-58.2c20.7-16.2,44.7-29.2,70.9-38.1c26.1-8.9,54.5-13.7,84.2-13.7
				s58.1,4.9,84.2,13.7c26.2,8.9,50.2,21.9,70.9,38.1c20.9,16.3,38.4,36,51.3,58.2c13.1,22.5,21.6,47.5,24,74.3H1105.1z
				 M1318.1,1095.3c-2.5-27.7-11.3-53.7-25-76.9c-13.5-22.9-31.6-43.3-53.3-60.2c-21.4-16.7-46.3-30.1-73.5-39.3
				c-27-9.1-56.4-14.2-87.1-14.2s-60.1,5-87.1,14.2c-27.2,9.2-52,22.6-73.5,39.3c-21.6,16.9-39.8,37.3-53.3,60.2
				c-13.6,23.3-22.4,49.2-25,76.9H106L396.9,92.7c7.5-0.3,14.9-1.5,21.8-3.3s13.4-4.3,19.2-7.2c5.7-3,10.8-6.4,14.8-10.2
				c4-3.8,7-7.9,8.8-12.3h307.8l-13.6,101.9h200.5c4.4,8,10.7,15.3,18.6,21.9c8,6.6,17.5,12.4,28.3,17.1
				c10.8,4.8,22.8,8.6,35.6,11.2c12.8,2.6,26.4,4,40.4,4s27.6-1.4,40.4-4s24.8-6.4,35.6-11.2c10.8-4.8,20.3-10.6,28.3-17.1
				c7.9-6.6,14.2-13.9,18.6-21.9h200.5L1389,59.7h307.7c1.7,4.3,4.7,8.5,8.7,12.3s9,7.2,14.7,10.2s12.2,5.4,19.1,7.2
				c6.9,1.8,14.3,3,21.7,3.3L2052,1095.3L1318.1,1095.3L1318.1,1095.3z"/>
		</g>
		<g transform="translate(456.913)">
			<polygon class="st3" points="435,59 465,116 780.2,116 810.2,59 			"/>
			<polyline class="st4" points="468,117.3 468,0.3 778.2,0.3 778.2,117.3 			"/>
			<polygon class="st5" points="928.2,58.9 946.9,94.7 1227.3,94.7 1246,58.9 			"/>
			<g transform="translate(435)">
				<polygon class="st3" points="0,59 30,116 345.2,116 375.2,59 				"/>
				<g transform="translate(33.015 4)">
					<path class="st6" d="M8,1.1l7.2,4.1v8.2L8,17.5l-7.2-4.1V5.2L8,1.1 M8,0.1L0,4.7v9.2l8,4.6l8-4.6V4.7L8,0.1L8,0.1z"/>
					<path class="st6" d="M23.2,1.1l7.2,4.1v8.2l-7.2,4.1L16,13.4V5.2L23.2,1.1 M23.2,0.1l-8,4.6v9.2l8,4.6l8-4.6V4.7L23.2,0.1
						L23.2,0.1z"/>
					<path class="st6" d="M38.5,1.1l7.2,4.1v8.2l-7.2,4.1l-7.2-4.1V5.2L38.5,1.1 M38.5,0.1l-8,4.6v9.2l8,4.6l8-4.6V4.7L38.5,0.1
						L38.5,0.1z"/>
					<path class="st6" d="M53.7,1.1l7.2,4.1v8.2l-7.2,4.1l-7.2-4.1V5.2L53.7,1.1 M53.7,0.1l-8,4.6v9.2l8,4.6l8-4.6V4.7L53.7,0.1
						L53.7,0.1z"/>
					<path class="st6" d="M68.9,1.1l7.2,4.1v8.2l-7.2,4.1l-7.2-4.1V5.2L68.9,1.1 M68.9,0.1l-8,4.6v9.2l8,4.6l8-4.6V4.7L68.9,0.1
						L68.9,0.1z"/>
					<path class="st6" d="M84.2,1.1l7.2,4.1v8.2l-7.2,4.1L77,13.4V5.2L84.2,1.1 M84.2,0.1l-8,4.6v9.2l8,4.6l8-4.6V4.7L84.2,0.1
						L84.2,0.1z"/>
					<path class="st6" d="M99.4,1.1l7.2,4.1v8.2l-7.2,4.1l-7.2-4.1V5.2L99.4,1.1 M99.4,0.1l-8,4.6v9.2l8,4.6l8-4.6V4.7L99.4,0.1
						L99.4,0.1z"/>
					<path class="st6" d="M114.6,1.1l7.2,4.1v8.2l-7.2,4.1l-7.2-4.1V5.2L114.6,1.1 M114.6,0.1l-8,4.6v9.2l8,4.6l8-4.6V4.7L114.6,0.1
						L114.6,0.1z"/>
					<path class="st6" d="M129.9,1.1l7.2,4.1v8.2l-7.2,4.1l-7.2-4.1V5.2L129.9,1.1 M129.9,0.1l-8,4.6v9.2l8,4.6l8-4.6V4.7L129.9,0.1
						L129.9,0.1z"/>
					<path class="st6" d="M145.1,1.1l7.2,4.1v8.2l-7.2,4.1l-7.2-4.1V5.2L145.1,1.1 M145.1,0.1l-8,4.6v9.2l8,4.6l8-4.6V4.7L145.1,0.1
						L145.1,0.1z"/>
					<path class="st6" d="M160.3,1.1l7.2,4.1v8.2l-7.2,4.1l-7.2-4.1V5.2L160.3,1.1 M160.3,0.1l-8,4.6v9.2l8,4.6l8-4.6V4.7L160.3,0.1
						L160.3,0.1z"/>
					<path class="st6" d="M175.6,1.1l7.2,4.1v8.2l-7.2,4.1l-7.2-4.1V5.2L175.6,1.1 M175.6,0.1l-8,4.6v9.2l8,4.6l8-4.6V4.7L175.6,0.1
						L175.6,0.1z"/>
					<path class="st6" d="M190.8,1.1l7.2,4.1v8.2l-7.2,4.1l-7.2-4.1V5.2L190.8,1.1 M190.8,0.1l-8,4.6v9.2l8,4.6l8-4.6V4.7L190.8,0.1
						L190.8,0.1z"/>
					<path class="st6" d="M206,1.1l7.2,4.1v8.2l-7.2,4.1l-7.2-4.1V5.2L206,1.1 M206,0.1l-8,4.6v9.2l8,4.6l8-4.6V4.7L206,0.1L206,0.1
						z"/>
					<path class="st6" d="M221.3,1.1l7.2,4.1v8.2l-7.2,4.1l-7.2-4.1V5.2L221.3,1.1 M221.3,0.1l-8,4.6v9.2l8,4.6l8-4.6V4.7L221.3,0.1
						L221.3,0.1z"/>
					<path class="st6" d="M236.5,1.1l7.2,4.1v8.2l-7.2,4.1l-7.2-4.1V5.2L236.5,1.1 M236.5,0.1l-8,4.6v9.2l8,4.6l8-4.6V4.7L236.5,0.1
						L236.5,0.1z"/>
					<path class="st6" d="M251.7,1.1l7.2,4.1v8.2l-7.2,4.1l-7.2-4.1V5.2L251.7,1.1 M251.7,0.1l-8,4.6v9.2l8,4.6l8-4.6V4.7L251.7,0.1
						L251.7,0.1z"/>
					<path class="st6" d="M267,1.1l7.2,4.1v8.2l-7.2,4.1l-7.2-4.1V5.2L267,1.1 M267,0.1l-8,4.6v9.2l8,4.6l8-4.6V4.7L267,0.1L267,0.1
						z"/>
					<path class="st6" d="M282.2,1.1l7.2,4.1v8.2l-7.2,4.1l-7.2-4.1V5.2L282.2,1.1 M282.2,0.1l-8,4.6v9.2l8,4.6l8-4.6V4.7L282.2,0.1
						L282.2,0.1z"/>
					<path class="st6" d="M297.4,1.1l7.2,4.1v8.2l-7.2,4.1l-7.2-4.1V5.2L297.4,1.1 M297.4,0.1l-8,4.6v9.2l8,4.6l8-4.6V4.7L297.4,0.1
						L297.4,0.1z"/>
					<g transform="translate(7.215 13.393)">
						<path class="st6" d="M8.4,1.1l7.2,4.1v8.2l-7.2,4.1l-7.2-4.1V5.2L8.4,1.1 M8.4,0.2l-8,4.6V14l8,4.6l8-4.6V4.8L8.4,0.2L8.4,0.2
							z"/>
						<path class="st6" d="M23.6,1.1l7.2,4.1v8.2l-7.2,4.1l-7.2-4.1V5.2L23.6,1.1 M23.6,0.2l-8,4.6V14l8,4.6l8-4.6V4.8L23.6,0.2
							L23.6,0.2z"/>
						<path class="st6" d="M38.9,1.1l7.2,4.1v8.2l-7.2,4.1l-7.2-4.1V5.2L38.9,1.1 M38.9,0.2l-8,4.6V14l8,4.6l8-4.6V4.8L38.9,0.2
							L38.9,0.2z"/>
						<path class="st6" d="M54.1,1.1l7.2,4.1v8.2l-7.2,4.1l-7.2-4.1V5.2L54.1,1.1 M54.1,0.2l-8,4.6V14l8,4.6l8-4.6V4.8L54.1,0.2
							L54.1,0.2z"/>
						<path class="st6" d="M69.3,1.1l7.2,4.1v8.2l-7.2,4.1l-7.2-4.1V5.2L69.3,1.1 M69.3,0.2l-8,4.6V14l8,4.6l8-4.6V4.8L69.3,0.2
							L69.3,0.2z"/>
						<path class="st6" d="M84.6,1.1l7.2,4.1v8.2l-7.2,4.1l-7.2-4.1V5.2L84.6,1.1 M84.6,0.2l-8,4.6V14l8,4.6l8-4.6V4.8L84.6,0.2
							L84.6,0.2z"/>
						<path class="st6" d="M99.8,1.1l7.2,4.1v8.2l-7.2,4.1l-7.2-4.1V5.2L99.8,1.1 M99.8,0.2l-8,4.6V14l8,4.6l8-4.6V4.8L99.8,0.2
							L99.8,0.2z"/>
						<path class="st6" d="M115,1.1l7.2,4.1v8.2l-7.2,4.1l-7.2-4.1V5.2L115,1.1 M115,0.2l-8,4.6V14l8,4.6l8-4.6V4.8L115,0.2L115,0.2
							z"/>
						<path class="st6" d="M130.3,1.1l7.2,4.1v8.2l-7.2,4.1l-7.2-4.1V5.2L130.3,1.1 M130.3,0.2l-8,4.6V14l8,4.6l8-4.6V4.8L130.3,0.2
							L130.3,0.2z"/>
						<path class="st6" d="M145.5,1.1l7.2,4.1v8.2l-7.2,4.1l-7.2-4.1V5.2L145.5,1.1 M145.5,0.2l-8,4.6V14l8,4.6l8-4.6V4.8L145.5,0.2
							L145.5,0.2z"/>
						<path class="st6" d="M160.7,1.1l7.2,4.1v8.2l-7.2,4.1l-7.2-4.1V5.2L160.7,1.1 M160.7,0.2l-8,4.6V14l8,4.6l8-4.6V4.8L160.7,0.2
							L160.7,0.2z"/>
						<path class="st6" d="M176,1.1l7.2,4.1v8.2l-7.2,4.1l-7.2-4.1V5.2L176,1.1 M176,0.2l-8,4.6V14l8,4.6l8-4.6V4.8L176,0.2L176,0.2
							z"/>
						<path class="st6" d="M191.2,1.1l7.2,4.1v8.2l-7.2,4.1l-7.2-4.1V5.2L191.2,1.1 M191.2,0.2l-8,4.6V14l8,4.6l8-4.6V4.8L191.2,0.2
							L191.2,0.2z"/>
						<path class="st6" d="M206.4,1.1l7.2,4.1v8.2l-7.2,4.1l-7.2-4.1V5.2L206.4,1.1 M206.4,0.2l-8,4.6V14l8,4.6l8-4.6V4.8L206.4,0.2
							L206.4,0.2z"/>
						<path class="st6" d="M221.7,1.1l7.2,4.1v8.2l-7.2,4.1l-7.2-4.1V5.2L221.7,1.1 M221.7,0.2l-8,4.6V14l8,4.6l8-4.6V4.8L221.7,0.2
							L221.7,0.2z"/>
						<path class="st6" d="M236.9,1.1l7.2,4.1v8.2l-7.2,4.1l-7.2-4.1V5.2L236.9,1.1 M236.9,0.2l-8,4.6V14l8,4.6l8-4.6V4.8L236.9,0.2
							L236.9,0.2z"/>
						<path class="st6" d="M252.1,1.1l7.2,4.1v8.2l-7.2,4.1l-7.2-4.1V5.2L252.1,1.1 M252.1,0.2l-8,4.6V14l8,4.6l8-4.6V4.8L252.1,0.2
							L252.1,0.2z"/>
						<path class="st6" d="M267.4,1.1l7.2,4.1v8.2l-7.2,4.1l-7.2-4.1V5.2L267.4,1.1 M267.4,0.2l-8,4.6V14l8,4.6l8-4.6V4.8L267.4,0.2
							L267.4,0.2z"/>
						<path class="st6" d="M282.6,1.1l7.2,4.1v8.2l-7.2,4.1l-7.2-4.1V5.2L282.6,1.1 M282.6,0.2l-8,4.6V14l8,4.6l8-4.6V4.8L282.6,0.2
							L282.6,0.2z"/>
						<path class="st6" d="M297.8,1.1l7.2,4.1v8.2l-7.2,4.1l-7.2-4.1V5.2L297.8,1.1 M297.8,0.2l-8,4.6V14l8,4.6l8-4.6V4.8L297.8,0.2
							L297.8,0.2z"/>
					</g>
					<g transform="translate(0 26.785)">
						<path class="st6" d="M8,1.3l7.2,4.1v8.2L8,17.7l-7.2-4.1V5.4L8,1.3 M8,0.3L0,4.9v9.2l8,4.6l8-4.6V4.9L8,0.3L8,0.3z"/>
						<path class="st6" d="M23.2,1.3l7.2,4.1v8.2l-7.2,4.1L16,13.6V5.4L23.2,1.3 M23.2,0.3l-8,4.6v9.2l8,4.6l8-4.6V4.9L23.2,0.3
							L23.2,0.3z"/>
						<path class="st6" d="M38.5,1.3l7.2,4.1v8.2l-7.2,4.1l-7.2-4.1V5.4L38.5,1.3 M38.5,0.3l-8,4.6v9.2l8,4.6l8-4.6V4.9L38.5,0.3
							L38.5,0.3z"/>
						<path class="st6" d="M53.7,1.3l7.2,4.1v8.2l-7.2,4.1l-7.2-4.1V5.4L53.7,1.3 M53.7,0.3l-8,4.6v9.2l8,4.6l8-4.6V4.9L53.7,0.3
							L53.7,0.3z"/>
						<path class="st6" d="M68.9,1.3l7.2,4.1v8.2l-7.2,4.1l-7.2-4.1V5.4L68.9,1.3 M68.9,0.3l-8,4.6v9.2l8,4.6l8-4.6V4.9L68.9,0.3
							L68.9,0.3z"/>
						<path class="st6" d="M84.2,1.3l7.2,4.1v8.2l-7.2,4.1L77,13.6V5.4L84.2,1.3 M84.2,0.3l-8,4.6v9.2l8,4.6l8-4.6V4.9L84.2,0.3
							L84.2,0.3z"/>
						<path class="st6" d="M99.4,1.3l7.2,4.1v8.2l-7.2,4.1l-7.2-4.1V5.4L99.4,1.3 M99.4,0.3l-8,4.6v9.2l8,4.6l8-4.6V4.9L99.4,0.3
							L99.4,0.3z"/>
						<path class="st6" d="M114.6,1.3l7.2,4.1v8.2l-7.2,4.1l-7.2-4.1V5.4L114.6,1.3 M114.6,0.3l-8,4.6v9.2l8,4.6l8-4.6V4.9
							L114.6,0.3L114.6,0.3z"/>
						<path class="st6" d="M129.9,1.3l7.2,4.1v8.2l-7.2,4.1l-7.2-4.1V5.4L129.9,1.3 M129.9,0.3l-8,4.6v9.2l8,4.6l8-4.6V4.9
							L129.9,0.3L129.9,0.3z"/>
						<path class="st6" d="M145.1,1.3l7.2,4.1v8.2l-7.2,4.1l-7.2-4.1V5.4L145.1,1.3 M145.1,0.3l-8,4.6v9.2l8,4.6l8-4.6V4.9
							L145.1,0.3L145.1,0.3z"/>
						<path class="st6" d="M160.3,1.3l7.2,4.1v8.2l-7.2,4.1l-7.2-4.1V5.4L160.3,1.3 M160.3,0.3l-8,4.6v9.2l8,4.6l8-4.6V4.9
							L160.3,0.3L160.3,0.3z"/>
						<path class="st6" d="M175.6,1.3l7.2,4.1v8.2l-7.2,4.1l-7.2-4.1V5.4L175.6,1.3 M175.6,0.3l-8,4.6v9.2l8,4.6l8-4.6V4.9
							L175.6,0.3L175.6,0.3z"/>
						<path class="st6" d="M190.8,1.3l7.2,4.1v8.2l-7.2,4.1l-7.2-4.1V5.4L190.8,1.3 M190.8,0.3l-8,4.6v9.2l8,4.6l8-4.6V4.9
							L190.8,0.3L190.8,0.3z"/>
						<path class="st6" d="M206,1.3l7.2,4.1v8.2l-7.2,4.1l-7.2-4.1V5.4L206,1.3 M206,0.3l-8,4.6v9.2l8,4.6l8-4.6V4.9L206,0.3
							L206,0.3z"/>
						<path class="st6" d="M221.3,1.3l7.2,4.1v8.2l-7.2,4.1l-7.2-4.1V5.4L221.3,1.3 M221.3,0.3l-8,4.6v9.2l8,4.6l8-4.6V4.9
							L221.3,0.3L221.3,0.3z"/>
						<path class="st6" d="M236.5,1.3l7.2,4.1v8.2l-7.2,4.1l-7.2-4.1V5.4L236.5,1.3 M236.5,0.3l-8,4.6v9.2l8,4.6l8-4.6V4.9
							L236.5,0.3L236.5,0.3z"/>
						<path class="st6" d="M251.7,1.3l7.2,4.1v8.2l-7.2,4.1l-7.2-4.1V5.4L251.7,1.3 M251.7,0.3l-8,4.6v9.2l8,4.6l8-4.6V4.9
							L251.7,0.3L251.7,0.3z"/>
						<path class="st6" d="M267,1.3l7.2,4.1v8.2l-7.2,4.1l-7.2-4.1V5.4L267,1.3 M267,0.3l-8,4.6v9.2l8,4.6l8-4.6V4.9L267,0.3
							L267,0.3z"/>
						<path class="st6" d="M282.2,1.3l7.2,4.1v8.2l-7.2,4.1l-7.2-4.1V5.4L282.2,1.3 M282.2,0.3l-8,4.6v9.2l8,4.6l8-4.6V4.9
							L282.2,0.3L282.2,0.3z"/>
						<path class="st6" d="M297.4,1.3l7.2,4.1v8.2l-7.2,4.1l-7.2-4.1V5.4L297.4,1.3 M297.4,0.3l-8,4.6v9.2l8,4.6l8-4.6V4.9
							L297.4,0.3L297.4,0.3z"/>
					</g>
					<g transform="translate(7.215 40.178)">
						<path class="st6" d="M8.4,1.3l7.2,4.1v8.2l-7.2,4.1l-7.2-4.1V5.4L8.4,1.3 M8.4,0.3l-8,4.6v9.2l8,4.6l8-4.6V4.9L8.4,0.3
							L8.4,0.3z"/>
						<path class="st6" d="M23.6,1.3l7.2,4.1v8.2l-7.2,4.1l-7.2-4.1V5.4L23.6,1.3 M23.6,0.3l-8,4.6v9.2l8,4.6l8-4.6V4.9L23.6,0.3
							L23.6,0.3z"/>
						<path class="st6" d="M38.9,1.3l7.2,4.1v8.2l-7.2,4.1l-7.2-4.1V5.4L38.9,1.3 M38.9,0.3l-8,4.6v9.2l8,4.6l8-4.6V4.9L38.9,0.3
							L38.9,0.3z"/>
						<path class="st6" d="M54.1,1.3l7.2,4.1v8.2l-7.2,4.1l-7.2-4.1V5.4L54.1,1.3 M54.1,0.3l-8,4.6v9.2l8,4.6l8-4.6V4.9L54.1,0.3
							L54.1,0.3z"/>
						<path class="st6" d="M69.3,1.3l7.2,4.1v8.2l-7.2,4.1l-7.2-4.1V5.4L69.3,1.3 M69.3,0.3l-8,4.6v9.2l8,4.6l8-4.6V4.9L69.3,0.3
							L69.3,0.3z"/>
						<path class="st6" d="M84.6,1.3l7.2,4.1v8.2l-7.2,4.1l-7.2-4.1V5.4L84.6,1.3 M84.6,0.3l-8,4.6v9.2l8,4.6l8-4.6V4.9L84.6,0.3
							L84.6,0.3z"/>
						<path class="st6" d="M99.8,1.3l7.2,4.1v8.2l-7.2,4.1l-7.2-4.1V5.4L99.8,1.3 M99.8,0.3l-8,4.6v9.2l8,4.6l8-4.6V4.9L99.8,0.3
							L99.8,0.3z"/>
						<path class="st6" d="M115,1.3l7.2,4.1v8.2l-7.2,4.1l-7.2-4.1V5.4L115,1.3 M115,0.3l-8,4.6v9.2l8,4.6l8-4.6V4.9L115,0.3
							L115,0.3z"/>
						<path class="st6" d="M130.3,1.3l7.2,4.1v8.2l-7.2,4.1l-7.2-4.1V5.4L130.3,1.3 M130.3,0.3l-8,4.6v9.2l8,4.6l8-4.6V4.9
							L130.3,0.3L130.3,0.3z"/>
						<path class="st6" d="M145.5,1.3l7.2,4.1v8.2l-7.2,4.1l-7.2-4.1V5.4L145.5,1.3 M145.5,0.3l-8,4.6v9.2l8,4.6l8-4.6V4.9
							L145.5,0.3L145.5,0.3z"/>
						<path class="st6" d="M160.7,1.3l7.2,4.1v8.2l-7.2,4.1l-7.2-4.1V5.4L160.7,1.3 M160.7,0.3l-8,4.6v9.2l8,4.6l8-4.6V4.9
							L160.7,0.3L160.7,0.3z"/>
						<path class="st6" d="M176,1.3l7.2,4.1v8.2l-7.2,4.1l-7.2-4.1V5.4L176,1.3 M176,0.3l-8,4.6v9.2l8,4.6l8-4.6V4.9L176,0.3
							L176,0.3z"/>
						<path class="st6" d="M191.2,1.3l7.2,4.1v8.2l-7.2,4.1l-7.2-4.1V5.4L191.2,1.3 M191.2,0.3l-8,4.6v9.2l8,4.6l8-4.6V4.9
							L191.2,0.3L191.2,0.3z"/>
						<path class="st6" d="M206.4,1.3l7.2,4.1v8.2l-7.2,4.1l-7.2-4.1V5.4L206.4,1.3 M206.4,0.3l-8,4.6v9.2l8,4.6l8-4.6V4.9
							L206.4,0.3L206.4,0.3z"/>
						<path class="st6" d="M221.7,1.3l7.2,4.1v8.2l-7.2,4.1l-7.2-4.1V5.4L221.7,1.3 M221.7,0.3l-8,4.6v9.2l8,4.6l8-4.6V4.9
							L221.7,0.3L221.7,0.3z"/>
						<path class="st6" d="M236.9,1.3l7.2,4.1v8.2l-7.2,4.1l-7.2-4.1V5.4L236.9,1.3 M236.9,0.3l-8,4.6v9.2l8,4.6l8-4.6V4.9
							L236.9,0.3L236.9,0.3z"/>
						<path class="st6" d="M252.1,1.3l7.2,4.1v8.2l-7.2,4.1l-7.2-4.1V5.4L252.1,1.3 M252.1,0.3l-8,4.6v9.2l8,4.6l8-4.6V4.9
							L252.1,0.3L252.1,0.3z"/>
						<path class="st6" d="M267.4,1.3l7.2,4.1v8.2l-7.2,4.1l-7.2-4.1V5.4L267.4,1.3 M267.4,0.3l-8,4.6v9.2l8,4.6l8-4.6V4.9
							L267.4,0.3L267.4,0.3z"/>
						<path class="st6" d="M282.6,1.3l7.2,4.1v8.2l-7.2,4.1l-7.2-4.1V5.4L282.6,1.3 M282.6,0.3l-8,4.6v9.2l8,4.6l8-4.6V4.9
							L282.6,0.3L282.6,0.3z"/>
						<path class="st6" d="M297.8,1.3l7.2,4.1v8.2l-7.2,4.1l-7.2-4.1V5.4L297.8,1.3 M297.8,0.3l-8,4.6v9.2l8,4.6l8-4.6V4.9
							L297.8,0.3L297.8,0.3z"/>
					</g>
					<g transform="translate(0 53.57)">
						<path class="st6" d="M8,1.5l7.2,4.1v8.2L8,17.9l-7.2-4.1V5.6L8,1.5 M8,0.5L0,5.1v9.2l8,4.6l8-4.6V5.1L8,0.5L8,0.5z"/>
						<path class="st6" d="M23.2,1.5l7.2,4.1v8.2l-7.2,4.1L16,13.8V5.6L23.2,1.5 M23.2,0.5l-8,4.6v9.2l8,4.6l8-4.6V5.1L23.2,0.5
							L23.2,0.5z"/>
						<path class="st6" d="M38.5,1.5l7.2,4.1v8.2l-7.2,4.1l-7.2-4.1V5.6L38.5,1.5 M38.5,0.5l-8,4.6v9.2l8,4.6l8-4.6V5.1L38.5,0.5
							L38.5,0.5z"/>
						<path class="st6" d="M53.7,1.5l7.2,4.1v8.2l-7.2,4.1l-7.2-4.1V5.6L53.7,1.5 M53.7,0.5l-8,4.6v9.2l8,4.6l8-4.6V5.1L53.7,0.5
							L53.7,0.5z"/>
						<path class="st6" d="M68.9,1.5l7.2,4.1v8.2l-7.2,4.1l-7.2-4.1V5.6L68.9,1.5 M68.9,0.5l-8,4.6v9.2l8,4.6l8-4.6V5.1L68.9,0.5
							L68.9,0.5z"/>
						<path class="st6" d="M84.2,1.5l7.2,4.1v8.2l-7.2,4.1L77,13.8V5.6L84.2,1.5 M84.2,0.5l-8,4.6v9.2l8,4.6l8-4.6V5.1L84.2,0.5
							L84.2,0.5z"/>
						<path class="st6" d="M99.4,1.5l7.2,4.1v8.2l-7.2,4.1l-7.2-4.1V5.6L99.4,1.5 M99.4,0.5l-8,4.6v9.2l8,4.6l8-4.6V5.1L99.4,0.5
							L99.4,0.5z"/>
						<path class="st6" d="M114.6,1.5l7.2,4.1v8.2l-7.2,4.1l-7.2-4.1V5.6L114.6,1.5 M114.6,0.5l-8,4.6v9.2l8,4.6l8-4.6V5.1
							L114.6,0.5L114.6,0.5z"/>
						<path class="st6" d="M129.9,1.5l7.2,4.1v8.2l-7.2,4.1l-7.2-4.1V5.6L129.9,1.5 M129.9,0.5l-8,4.6v9.2l8,4.6l8-4.6V5.1
							L129.9,0.5L129.9,0.5z"/>
						<path class="st6" d="M145.1,1.5l7.2,4.1v8.2l-7.2,4.1l-7.2-4.1V5.6L145.1,1.5 M145.1,0.5l-8,4.6v9.2l8,4.6l8-4.6V5.1
							L145.1,0.5L145.1,0.5z"/>
						<path class="st6" d="M160.3,1.5l7.2,4.1v8.2l-7.2,4.1l-7.2-4.1V5.6L160.3,1.5 M160.3,0.5l-8,4.6v9.2l8,4.6l8-4.6V5.1
							L160.3,0.5L160.3,0.5z"/>
						<path class="st6" d="M175.6,1.5l7.2,4.1v8.2l-7.2,4.1l-7.2-4.1V5.6L175.6,1.5 M175.6,0.5l-8,4.6v9.2l8,4.6l8-4.6V5.1
							L175.6,0.5L175.6,0.5z"/>
						<path class="st6" d="M190.8,1.5l7.2,4.1v8.2l-7.2,4.1l-7.2-4.1V5.6L190.8,1.5 M190.8,0.5l-8,4.6v9.2l8,4.6l8-4.6V5.1
							L190.8,0.5L190.8,0.5z"/>
						<path class="st6" d="M206,1.5l7.2,4.1v8.2l-7.2,4.1l-7.2-4.1V5.6L206,1.5 M206,0.5l-8,4.6v9.2l8,4.6l8-4.6V5.1L206,0.5
							L206,0.5z"/>
						<path class="st6" d="M221.3,1.5l7.2,4.1v8.2l-7.2,4.1l-7.2-4.1V5.6L221.3,1.5 M221.3,0.5l-8,4.6v9.2l8,4.6l8-4.6V5.1
							L221.3,0.5L221.3,0.5z"/>
						<path class="st6" d="M236.5,1.5l7.2,4.1v8.2l-7.2,4.1l-7.2-4.1V5.6L236.5,1.5 M236.5,0.5l-8,4.6v9.2l8,4.6l8-4.6V5.1
							L236.5,0.5L236.5,0.5z"/>
						<path class="st6" d="M251.7,1.5l7.2,4.1v8.2l-7.2,4.1l-7.2-4.1V5.6L251.7,1.5 M251.7,0.5l-8,4.6v9.2l8,4.6l8-4.6V5.1
							L251.7,0.5L251.7,0.5z"/>
						<path class="st6" d="M267,1.5l7.2,4.1v8.2l-7.2,4.1l-7.2-4.1V5.6L267,1.5 M267,0.5l-8,4.6v9.2l8,4.6l8-4.6V5.1L267,0.5
							L267,0.5z"/>
						<path class="st6" d="M282.2,1.5l7.2,4.1v8.2l-7.2,4.1l-7.2-4.1V5.6L282.2,1.5 M282.2,0.5l-8,4.6v9.2l8,4.6l8-4.6V5.1
							L282.2,0.5L282.2,0.5z"/>
						<path class="st6" d="M297.4,1.5l7.2,4.1v8.2l-7.2,4.1l-7.2-4.1V5.6L297.4,1.5 M297.4,0.5l-8,4.6v9.2l8,4.6l8-4.6V5.1
							L297.4,0.5L297.4,0.5z"/>
					</g>
					<g transform="translate(7.215 66.963)">
						<path class="st6" d="M8.4,1.5l7.2,4.1v8.2l-7.2,4.1l-7.2-4.1V5.6L8.4,1.5 M8.4,0.6l-8,4.6v9.2l8,4.6l8-4.6V5.2L8.4,0.6
							L8.4,0.6z"/>
						<path class="st6" d="M23.6,1.5l7.2,4.1v8.2l-7.2,4.1l-7.2-4.1V5.6L23.6,1.5 M23.6,0.6l-8,4.6v9.2l8,4.6l8-4.6V5.2L23.6,0.6
							L23.6,0.6z"/>
						<path class="st6" d="M38.9,1.5l7.2,4.1v8.2l-7.2,4.1l-7.2-4.1V5.6L38.9,1.5 M38.9,0.6l-8,4.6v9.2l8,4.6l8-4.6V5.2L38.9,0.6
							L38.9,0.6z"/>
						<path class="st6" d="M54.1,1.5l7.2,4.1v8.2l-7.2,4.1l-7.2-4.1V5.6L54.1,1.5 M54.1,0.6l-8,4.6v9.2l8,4.6l8-4.6V5.2L54.1,0.6
							L54.1,0.6z"/>
						<path class="st6" d="M69.3,1.5l7.2,4.1v8.2l-7.2,4.1l-7.2-4.1V5.6L69.3,1.5 M69.3,0.6l-8,4.6v9.2l8,4.6l8-4.6V5.2L69.3,0.6
							L69.3,0.6z"/>
						<path class="st6" d="M84.6,1.5l7.2,4.1v8.2l-7.2,4.1l-7.2-4.1V5.6L84.6,1.5 M84.6,0.6l-8,4.6v9.2l8,4.6l8-4.6V5.2L84.6,0.6
							L84.6,0.6z"/>
						<path class="st6" d="M99.8,1.5l7.2,4.1v8.2l-7.2,4.1l-7.2-4.1V5.6L99.8,1.5 M99.8,0.6l-8,4.6v9.2l8,4.6l8-4.6V5.2L99.8,0.6
							L99.8,0.6z"/>
						<path class="st6" d="M115,1.5l7.2,4.1v8.2l-7.2,4.1l-7.2-4.1V5.6L115,1.5 M115,0.6l-8,4.6v9.2l8,4.6l8-4.6V5.2L115,0.6
							L115,0.6z"/>
						<path class="st6" d="M130.3,1.5l7.2,4.1v8.2l-7.2,4.1l-7.2-4.1V5.6L130.3,1.5 M130.3,0.6l-8,4.6v9.2l8,4.6l8-4.6V5.2
							L130.3,0.6L130.3,0.6z"/>
						<path class="st6" d="M145.5,1.5l7.2,4.1v8.2l-7.2,4.1l-7.2-4.1V5.6L145.5,1.5 M145.5,0.6l-8,4.6v9.2l8,4.6l8-4.6V5.2
							L145.5,0.6L145.5,0.6z"/>
						<path class="st6" d="M160.7,1.5l7.2,4.1v8.2l-7.2,4.1l-7.2-4.1V5.6L160.7,1.5 M160.7,0.6l-8,4.6v9.2l8,4.6l8-4.6V5.2
							L160.7,0.6L160.7,0.6z"/>
						<path class="st6" d="M176,1.5l7.2,4.1v8.2l-7.2,4.1l-7.2-4.1V5.6L176,1.5 M176,0.6l-8,4.6v9.2l8,4.6l8-4.6V5.2L176,0.6
							L176,0.6z"/>
						<path class="st6" d="M191.2,1.5l7.2,4.1v8.2l-7.2,4.1l-7.2-4.1V5.6L191.2,1.5 M191.2,0.6l-8,4.6v9.2l8,4.6l8-4.6V5.2
							L191.2,0.6L191.2,0.6z"/>
						<path class="st6" d="M206.4,1.5l7.2,4.1v8.2l-7.2,4.1l-7.2-4.1V5.6L206.4,1.5 M206.4,0.6l-8,4.6v9.2l8,4.6l8-4.6V5.2
							L206.4,0.6L206.4,0.6z"/>
						<path class="st6" d="M221.7,1.5l7.2,4.1v8.2l-7.2,4.1l-7.2-4.1V5.6L221.7,1.5 M221.7,0.6l-8,4.6v9.2l8,4.6l8-4.6V5.2
							L221.7,0.6L221.7,0.6z"/>
						<path class="st6" d="M236.9,1.5l7.2,4.1v8.2l-7.2,4.1l-7.2-4.1V5.6L236.9,1.5 M236.9,0.6l-8,4.6v9.2l8,4.6l8-4.6V5.2
							L236.9,0.6L236.9,0.6z"/>
						<path class="st6" d="M252.1,1.5l7.2,4.1v8.2l-7.2,4.1l-7.2-4.1V5.6L252.1,1.5 M252.1,0.6l-8,4.6v9.2l8,4.6l8-4.6V5.2
							L252.1,0.6L252.1,0.6z"/>
						<path class="st6" d="M267.4,1.5l7.2,4.1v8.2l-7.2,4.1l-7.2-4.1V5.6L267.4,1.5 M267.4,0.6l-8,4.6v9.2l8,4.6l8-4.6V5.2
							L267.4,0.6L267.4,0.6z"/>
						<path class="st6" d="M282.6,1.5l7.2,4.1v8.2l-7.2,4.1l-7.2-4.1V5.6L282.6,1.5 M282.6,0.6l-8,4.6v9.2l8,4.6l8-4.6V5.2
							L282.6,0.6L282.6,0.6z"/>
						<path class="st6" d="M297.8,1.5l7.2,4.1v8.2l-7.2,4.1l-7.2-4.1V5.6L297.8,1.5 M297.8,0.6l-8,4.6v9.2l8,4.6l8-4.6V5.2
							L297.8,0.6L297.8,0.6z"/>
					</g>
					<g transform="translate(0 80.356)">
						<path class="st6" d="M8,1.7l7.2,4.1V14L8,18.1L0.8,14V5.9L8,1.7 M8,0.8L0,5.4v9.2l8,4.6l8-4.6V5.4L8,0.8L8,0.8z"/>
						<path class="st6" d="M23.2,1.7l7.2,4.1V14l-7.2,4.1L16,14V5.9L23.2,1.7 M23.2,0.8l-8,4.6v9.2l8,4.6l8-4.6V5.4L23.2,0.8
							L23.2,0.8z"/>
						<path class="st6" d="M38.5,1.7l7.2,4.1V14l-7.2,4.1L31.3,14V5.9L38.5,1.7 M38.5,0.8l-8,4.6v9.2l8,4.6l8-4.6V5.4L38.5,0.8
							L38.5,0.8z"/>
						<path class="st6" d="M53.7,1.7l7.2,4.1V14l-7.2,4.1L46.5,14V5.9L53.7,1.7 M53.7,0.8l-8,4.6v9.2l8,4.6l8-4.6V5.4L53.7,0.8
							L53.7,0.8z"/>
						<path class="st6" d="M68.9,1.7l7.2,4.1V14l-7.2,4.1L61.7,14V5.9L68.9,1.7 M68.9,0.8l-8,4.6v9.2l8,4.6l8-4.6V5.4L68.9,0.8
							L68.9,0.8z"/>
						<path class="st6" d="M84.2,1.7l7.2,4.1V14l-7.2,4.1L77,14V5.9L84.2,1.7 M84.2,0.8l-8,4.6v9.2l8,4.6l8-4.6V5.4L84.2,0.8
							L84.2,0.8z"/>
						<path class="st6" d="M99.4,1.7l7.2,4.1V14l-7.2,4.1L92.2,14V5.9L99.4,1.7 M99.4,0.8l-8,4.6v9.2l8,4.6l8-4.6V5.4L99.4,0.8
							L99.4,0.8z"/>
						<path class="st6" d="M114.6,1.7l7.2,4.1V14l-7.2,4.1l-7.2-4.1V5.9L114.6,1.7 M114.6,0.8l-8,4.6v9.2l8,4.6l8-4.6V5.4L114.6,0.8
							L114.6,0.8z"/>
						<path class="st6" d="M129.9,1.7l7.2,4.1V14l-7.2,4.1l-7.2-4.1V5.9L129.9,1.7 M129.9,0.8l-8,4.6v9.2l8,4.6l8-4.6V5.4L129.9,0.8
							L129.9,0.8z"/>
						<path class="st6" d="M145.1,1.7l7.2,4.1V14l-7.2,4.1l-7.2-4.1V5.9L145.1,1.7 M145.1,0.8l-8,4.6v9.2l8,4.6l8-4.6V5.4L145.1,0.8
							L145.1,0.8z"/>
						<path class="st6" d="M160.3,1.7l7.2,4.1V14l-7.2,4.1l-7.2-4.1V5.9L160.3,1.7 M160.3,0.8l-8,4.6v9.2l8,4.6l8-4.6V5.4L160.3,0.8
							L160.3,0.8z"/>
						<path class="st6" d="M175.6,1.7l7.2,4.1V14l-7.2,4.1l-7.2-4.1V5.9L175.6,1.7 M175.6,0.8l-8,4.6v9.2l8,4.6l8-4.6V5.4L175.6,0.8
							L175.6,0.8z"/>
						<path class="st6" d="M190.8,1.7l7.2,4.1V14l-7.2,4.1l-7.2-4.1V5.9L190.8,1.7 M190.8,0.8l-8,4.6v9.2l8,4.6l8-4.6V5.4L190.8,0.8
							L190.8,0.8z"/>
						<path class="st6" d="M206,1.7l7.2,4.1V14l-7.2,4.1l-7.2-4.1V5.9L206,1.7 M206,0.8l-8,4.6v9.2l8,4.6l8-4.6V5.4L206,0.8L206,0.8
							z"/>
						<path class="st6" d="M221.3,1.7l7.2,4.1V14l-7.2,4.1L214,14V5.9L221.3,1.7 M221.3,0.8l-8,4.6v9.2l8,4.6l8-4.6V5.4L221.3,0.8
							L221.3,0.8z"/>
						<path class="st6" d="M236.5,1.7l7.2,4.1V14l-7.2,4.1l-7.2-4.1V5.9L236.5,1.7 M236.5,0.8l-8,4.6v9.2l8,4.6l8-4.6V5.4L236.5,0.8
							L236.5,0.8z"/>
						<path class="st6" d="M251.7,1.7l7.2,4.1V14l-7.2,4.1l-7.2-4.1V5.9L251.7,1.7 M251.7,0.8l-8,4.6v9.2l8,4.6l8-4.6V5.4L251.7,0.8
							L251.7,0.8z"/>
						<path class="st6" d="M267,1.7l7.2,4.1V14l-7.2,4.1l-7.2-4.1V5.9L267,1.7 M267,0.8l-8,4.6v9.2l8,4.6l8-4.6V5.4L267,0.8L267,0.8
							z"/>
						<path class="st6" d="M282.2,1.7l7.2,4.1V14l-7.2,4.1L275,14V5.9L282.2,1.7 M282.2,0.8l-8,4.6v9.2l8,4.6l8-4.6V5.4L282.2,0.8
							L282.2,0.8z"/>
						<path class="st6" d="M297.4,1.7l7.2,4.1V14l-7.2,4.1l-7.2-4.1V5.9L297.4,1.7 M297.4,0.8l-8,4.6v9.2l8,4.6l8-4.6V5.4L297.4,0.8
							L297.4,0.8z"/>
					</g>
					<g transform="translate(7.215 93.748)">
						<path class="st6" d="M8.4,1.8l7.2,4.1v8.2l-7.2,4.1l-7.2-4.1V5.9L8.4,1.8 M8.4,0.8l-8,4.6v9.2l8,4.6l8-4.6V5.4L8.4,0.8
							L8.4,0.8z"/>
						<path class="st6" d="M23.6,1.8l7.2,4.1v8.2l-7.2,4.1l-7.2-4.1V5.9L23.6,1.8 M23.6,0.8l-8,4.6v9.2l8,4.6l8-4.6V5.4L23.6,0.8
							L23.6,0.8z"/>
						<path class="st6" d="M38.9,1.8l7.2,4.1v8.2l-7.2,4.1l-7.2-4.1V5.9L38.9,1.8 M38.9,0.8l-8,4.6v9.2l8,4.6l8-4.6V5.4L38.9,0.8
							L38.9,0.8z"/>
						<path class="st6" d="M54.1,1.8l7.2,4.1v8.2l-7.2,4.1l-7.2-4.1V5.9L54.1,1.8 M54.1,0.8l-8,4.6v9.2l8,4.6l8-4.6V5.4L54.1,0.8
							L54.1,0.8z"/>
						<path class="st6" d="M69.3,1.8l7.2,4.1v8.2l-7.2,4.1l-7.2-4.1V5.9L69.3,1.8 M69.3,0.8l-8,4.6v9.2l8,4.6l8-4.6V5.4L69.3,0.8
							L69.3,0.8z"/>
						<path class="st6" d="M84.6,1.8l7.2,4.1v8.2l-7.2,4.1l-7.2-4.1V5.9L84.6,1.8 M84.6,0.8l-8,4.6v9.2l8,4.6l8-4.6V5.4L84.6,0.8
							L84.6,0.8z"/>
						<path class="st6" d="M99.8,1.8l7.2,4.1v8.2l-7.2,4.1l-7.2-4.1V5.9L99.8,1.8 M99.8,0.8l-8,4.6v9.2l8,4.6l8-4.6V5.4L99.8,0.8
							L99.8,0.8z"/>
						<path class="st6" d="M115,1.8l7.2,4.1v8.2l-7.2,4.1l-7.2-4.1V5.9L115,1.8 M115,0.8l-8,4.6v9.2l8,4.6l8-4.6V5.4L115,0.8
							L115,0.8z"/>
						<path class="st6" d="M130.3,1.8l7.2,4.1v8.2l-7.2,4.1l-7.2-4.1V5.9L130.3,1.8 M130.3,0.8l-8,4.6v9.2l8,4.6l8-4.6V5.4
							L130.3,0.8L130.3,0.8z"/>
						<path class="st6" d="M145.5,1.8l7.2,4.1v8.2l-7.2,4.1l-7.2-4.1V5.9L145.5,1.8 M145.5,0.8l-8,4.6v9.2l8,4.6l8-4.6V5.4
							L145.5,0.8L145.5,0.8z"/>
						<path class="st6" d="M160.7,1.8l7.2,4.1v8.2l-7.2,4.1l-7.2-4.1V5.9L160.7,1.8 M160.7,0.8l-8,4.6v9.2l8,4.6l8-4.6V5.4
							L160.7,0.8L160.7,0.8z"/>
						<path class="st6" d="M176,1.8l7.2,4.1v8.2l-7.2,4.1l-7.2-4.1V5.9L176,1.8 M176,0.8l-8,4.6v9.2l8,4.6l8-4.6V5.4L176,0.8
							L176,0.8z"/>
						<path class="st6" d="M191.2,1.8l7.2,4.1v8.2l-7.2,4.1l-7.2-4.1V5.9L191.2,1.8 M191.2,0.8l-8,4.6v9.2l8,4.6l8-4.6V5.4
							L191.2,0.8L191.2,0.8z"/>
						<path class="st6" d="M206.4,1.8l7.2,4.1v8.2l-7.2,4.1l-7.2-4.1V5.9L206.4,1.8 M206.4,0.8l-8,4.6v9.2l8,4.6l8-4.6V5.4
							L206.4,0.8L206.4,0.8z"/>
						<path class="st6" d="M221.7,1.8l7.2,4.1v8.2l-7.2,4.1l-7.2-4.1V5.9L221.7,1.8 M221.7,0.8l-8,4.6v9.2l8,4.6l8-4.6V5.4
							L221.7,0.8L221.7,0.8z"/>
						<path class="st6" d="M236.9,1.8l7.2,4.1v8.2l-7.2,4.1l-7.2-4.1V5.9L236.9,1.8 M236.9,0.8l-8,4.6v9.2l8,4.6l8-4.6V5.4
							L236.9,0.8L236.9,0.8z"/>
						<path class="st6" d="M252.1,1.8l7.2,4.1v8.2l-7.2,4.1l-7.2-4.1V5.9L252.1,1.8 M252.1,0.8l-8,4.6v9.2l8,4.6l8-4.6V5.4
							L252.1,0.8L252.1,0.8z"/>
						<path class="st6" d="M267.4,1.8l7.2,4.1v8.2l-7.2,4.1l-7.2-4.1V5.9L267.4,1.8 M267.4,0.8l-8,4.6v9.2l8,4.6l8-4.6V5.4
							L267.4,0.8L267.4,0.8z"/>
						<path class="st6" d="M282.6,1.8l7.2,4.1v8.2l-7.2,4.1l-7.2-4.1V5.9L282.6,1.8 M282.6,0.8l-8,4.6v9.2l8,4.6l8-4.6V5.4
							L282.6,0.8L282.6,0.8z"/>
						<path class="st6" d="M297.8,1.8l7.2,4.1v8.2l-7.2,4.1l-7.2-4.1V5.9L297.8,1.8 M297.8,0.8l-8,4.6v9.2l8,4.6l8-4.6V5.4
							L297.8,0.8L297.8,0.8z"/>
					</g>
				</g>
				<polyline class="st4" points="33,117.3 33,0.3 343.2,0.3 343.2,117.3 				"/>
			</g>
			<polygon class="st5" points="0.2,59.1 18.9,94.9 299.3,94.9 317.9,59.1 			"/>
		</g>
	</g>
	
		<image style="overflow:visible;enable-background:new    ;" width="1818" height="544" xlink:href="3277A92DA35AC372.png"  transform="matrix(0.1556 0 0 0.1556 475.1032 10.6698)">
	</image>
	
		<image style="overflow:visible;enable-background:new    ;" width="1818" height="544" xlink:href="3277A92DA35AC375.png"  transform="matrix(0.1558 0 0 0.1558 1402.9957 10.2552)">
	</image>
</g>
<linearGradient id="SVGID_1_" gradientUnits="userSpaceOnUse" x1="614.0284" y1="1200.584" x2="615.1113" y2="1321.8607" gradientTransform="matrix(1 0 0 -1 -1.820766e-14 1372)">
	<stop  offset="0" style="stop-color:#BEB6B4"/>
	<stop  offset="0.9996" style="stop-color:#FFFFFF"/>
</linearGradient>
<rect x="472.9" y="15" class="st7" width="284.3" height="84"/>
<rect x="1402" y="14.6" class="st2" width="283.2" height="84"/>
<g id="Слой_2">
	<g>
		<path class="st8" d="M586.4,71.5h-2.6v9.2h-3.5v-9.2h-3.1v-3h10.1L586.4,71.5z"/>
		<path class="st8" d="M592,73.7h3.7v-5.1h3.5v12.2h-3.5v-6.4l-0.8,2.2H592v4.2h-3.4V68.6h3.4V73.7z"/>
		<path class="st8" d="M604.9,79l-0.5,1.8h-3.7l2.8-9.2h-1.6l1-2.9h6.4l3.4,12.2h-3.6l-1-4l-0.7,2.2L604.9,79z M605.7,76h2.2l-1-4.3
			L605.7,76z"/>
		<path class="st8" d="M620.8,71.5h-1.6v6.3h1.6v2.9H614v-2.9h1.7v-6.3H614v-3h7.7L620.8,71.5z"/>
		<path class="st8" d="M636.7,80.8h-7.2V68.6h3.5v9.3h4.7L636.7,80.8z"/>
		<path class="st8" d="M642.5,71.5v2h4.1l-0.9,2.6h-3.2v1.7h5.6v2.9h-9V68.6h9.3l-1,3L642.5,71.5L642.5,71.5z"/>
		<path class="st8" d="M653.7,79l-0.5,1.8h-3.7l2.7-9.2h-1.6l1-2.9h6.4l3.4,12.2h-3.6l-1-4L656,79H653.7z M654.4,76h2.2l-1-4.3
			L654.4,76z"/>
		<path class="st8" d="M672.6,78.3c-0.6,1.3-2.1,2.8-5.1,2.8c-2.2,0-5.6-1.3-5.6-4.4V73c0-2.7,2.5-4.7,5.7-4.7
			c1.7,0,3.5,0.4,5.1,1.1l-1.1,2.8c-1.3-0.6-2.6-0.9-4.1-0.9c-1.2,0-2.2,0.9-2.2,2.1v3.2c0,0.9,0.9,1.6,2,1.6c0.9,0,1.5-0.3,1.8-0.9
			v-0.9h-2l0.9-2.6h4.6L672.6,78.3L672.6,78.3z"/>
		<path class="st8" d="M677.7,75.3c0,1.9,0.8,2.4,1.8,2.4c0.9,0,1.7-0.5,1.7-2.4v-6.8h3.5v6.6c0,4.3-2.5,5.9-5.2,5.9
			s-5.2-1.6-5.2-5.9v-6.5h3.4V75.3z"/>
		<path class="st8" d="M690.2,71.5v2h4.1l-0.9,2.6h-3.2v1.7h5.6v2.9h-9V68.6h9.3l-1,3L690.2,71.5L690.2,71.5z"/>
		<polygon class="st9" points="592.4,37.9 574.9,37.9 574.9,41.8 581.4,41.8 581.4,58.2 586,58.2 586,41.8 592.4,41.8 		"/>
		<path class="st9" d="M604.2,37.3c-5.9,0-10.7,4.9-10.7,10.8s4.9,10.7,10.8,10.7c5.9,0,10.7-4.8,10.7-10.7
			C615,42.1,610.2,37.3,604.2,37.3C604.3,37.3,604.3,37.3,604.2,37.3 M609.5,51.3c-0.7,1.8-2.3,3.1-4.2,3.5c-0.7,0.1-1.4,0.1-2.1,0
			c-1.9-0.3-3.5-1.6-4.2-3.5c-0.8-2.1-0.8-4.4,0-6.5c0.7-1.8,2.3-3.1,4.2-3.4c0.7-0.1,1.4-0.1,2.1,0c1.9,0.3,3.5,1.6,4.2,3.4
			C610.3,46.9,610.3,49.2,609.5,51.3"/>
		<polyline class="st9" points="629.8,47.6 627.8,50.7 627.8,58.2 623.3,58.2 623.3,50.7 615.1,37.9 620.5,37.9 625.5,46.6 
			630.6,37.9 636,37.9 629.8,47.6 		"/>
		<path class="st9" d="M636.1,48.1c0-6,4.8-10.8,10.7-10.8c6,0,10.8,4.8,10.8,10.7c0,6-4.8,10.8-10.7,10.8l0,0
			C640.9,58.8,636.1,54,636.1,48.1L636.1,48.1 M646.9,54.9c0.4,0,0.7,0,1.1-0.1c1.9-0.3,3.5-1.7,4.2-3.5c0.8-2.1,0.8-4.4,0-6.5
			c-0.7-1.8-2.3-3.1-4.2-3.4c-0.7-0.1-1.4-0.1-2.1,0c-1.9,0.3-3.5,1.6-4.2,3.4c-0.8,2.1-0.8,4.4,0,6.5c0.7,1.8,2.3,3.1,4.2,3.5
			C646.1,54.8,646.5,54.8,646.9,54.9"/>
		<path class="st9" d="M690.2,53.7h-8.7l-1.7,4.5h-5.1l8.2-20.3h5.7l8.3,20.3h-5.1L690.2,53.7z M688.9,50.2l-3-8l-3,8H688.9z"/>
		<polygon class="st9" points="676.1,37.9 658.6,37.9 658.6,41.8 665.1,41.8 665.1,58.2 669.7,58.2 669.7,41.8 676.1,41.8 		"/>
		
			<linearGradient id="SVGID_2_" gradientUnits="userSpaceOnUse" x1="514.7" y1="-624.7" x2="542.2491" y2="-624.7" gradientTransform="matrix(1 0 0 1 0 672)">
			<stop  offset="0" style="stop-color:#E5AA23"/>
			<stop  offset="1" style="stop-color:#BE2926"/>
		</linearGradient>
		<path class="st10" d="M542.2,30.1c-10.3,22.4-27.5,27.5-27.5,27.5v6.9c0,0,16.5-3.5,27.5-17.2V30.1z"/>
		<path class="st11" d="M548.7,45.6c0-4.1,3.3-7.5,7.4-7.5s7.5,3.3,7.5,7.4s-3.3,7.5-7.4,7.5l0,0C552,53,548.7,49.7,548.7,45.6z
			 M556,64.6c0,3.8-3.1,6.9-6.9,6.9c-3.8,0-6.9-3.1-6.9-6.9l0,0v-7c0,0-8,5.3-20.7,6.9c0.2,11.4,9.6,20.5,21,20.3
			c11.1-0.2,20.1-9.2,20.3-20.3L556,64.6z M521.6,47.3v7l1.2-0.7c5.8-3.9,13.7-11,19.5-23.4v-3.4C530.8,26.7,521.6,35.9,521.6,47.3z
			"/>
	</g>
</g>
<g id="Слой_2_1_">
</g>
<rect x="471.4" y="13" class="st12" width="199.4" height="88.6"/>
<rect x="471.4" y="13" class="st12" width="199.4" height="88.6"/>
<g>
	<g>
		<defs>
			<rect id="SVGID_3_" x="472.9" y="15" width="284.3" height="84"/>
		</defs>
		<clipPath id="SVGID_4_">
			<use xlink:href="#SVGID_3_"  style="overflow:visible;"/>
		</clipPath>
		
			<linearGradient id="SVGID_5_" gradientUnits="userSpaceOnUse" x1="748.7718" y1="-568.2935" x2="747.836" y2="-635.4857" gradientTransform="matrix(1 0 0 1 0 672)">
			<stop  offset="0" style="stop-color:#751117"/>
			<stop  offset="0.9996" style="stop-color:#BC2026"/>
		</linearGradient>
		<polygon class="st13" points="781.5,-21 714.4,44.7 714.4,75.8 737.5,75.8 743.4,67.3 748.8,75.8 714.4,110.4 760.9,110.4 
			781.5,89.2 781.5,65.7 760.9,44.7 759.2,34.3 769.6,36.5 781.5,24.3 		"/>
	</g>
	<g>
		<defs>
			<rect id="SVGID_6_" x="472.9" y="15" width="284.3" height="84"/>
		</defs>
		<clipPath id="SVGID_7_">
			<use xlink:href="#SVGID_6_"  style="overflow:visible;"/>
		</clipPath>
		
			<linearGradient id="SVGID_8_" gradientUnits="userSpaceOnUse" x1="461.2183" y1="-656.5892" x2="461.8685" y2="-603.4908" gradientTransform="matrix(1 0 0 1 0 672)">
			<stop  offset="0" style="stop-color:#751117"/>
			<stop  offset="0.9996" style="stop-color:#BC2026"/>
		</linearGradient>
		<polygon class="st14" points="500.5,-21.3 422.9,54.8 422.9,90.9 449.6,90.9 456.5,81 462.7,90.9 422.9,130.8 476.7,130.8 
			500.5,106.4 500.5,79.1 476.7,54.8 474.8,42.8 486.8,45.4 500.5,31.1 		"/>
	</g>
</g>
<linearGradient id="SVGID_9_" gradientUnits="userSpaceOnUse" x1="1542.8789" y1="1201.3302" x2="1543.9615" y2="1322.5931" gradientTransform="matrix(1 0 0 -1 -1.820766e-14 1372)">
	<stop  offset="0" style="stop-color:#BEB6B4"/>
	<stop  offset="0.9996" style="stop-color:#FFFFFF"/>
</linearGradient>
<rect x="1402.3" y="14.3" class="st15" width="283.2" height="84"/>
<g id="Слой_2_2_">
	<g>
		<path class="st8" d="M1515.7,70.8h-2.6V80h-3.5v-9.2h-3.1v-3h10.1L1515.7,70.8z"/>
		<path class="st8" d="M1521.3,72.9h3.7v-5.1h3.5V80h-3.5v-6.4l-0.8,2.2h-2.9V80h-3.4V67.8h3.4L1521.3,72.9L1521.3,72.9z"/>
		<path class="st8" d="M1534.2,78.3l-0.5,1.8h-3.7l2.8-9.2h-1.6l1-2.9h6.4l3.4,12.2h-3.6l-1-4l-0.7,2.2L1534.2,78.3z M1535,75.3h2.2
			l-1-4.3L1535,75.3z"/>
		<path class="st8" d="M1550.1,70.8h-1.6v6.3h1.6V80h-6.8v-2.9h1.7v-6.3h-1.7v-3h7.7L1550.1,70.8z"/>
		<path class="st8" d="M1566,80h-7.2V67.8h3.5v9.3h4.7L1566,80z"/>
		<path class="st8" d="M1571.8,70.8v2h4.1l-0.9,2.6h-3.2v1.7h5.6V80h-9V67.8h9.3l-1,3H1571.8z"/>
		<path class="st8" d="M1583,78.3l-0.5,1.8h-3.7l2.7-9.2h-1.6l1-2.9h6.4l3.4,12.2h-3.6l-1-4l-0.8,2.2L1583,78.3z M1583.7,75.3h2.2
			l-1-4.3L1583.7,75.3z"/>
		<path class="st8" d="M1601.9,77.5c-0.6,1.3-2.1,2.8-5.1,2.8c-2.2,0-5.6-1.3-5.6-4.4v-3.6c0-2.7,2.5-4.7,5.7-4.7
			c1.7,0,3.5,0.4,5.1,1.1l-1.1,2.8c-1.3-0.6-2.6-0.9-4.1-0.9c-1.2,0-2.2,0.9-2.2,2.1v3.2c0,0.9,0.9,1.6,2,1.6c0.9,0,1.5-0.3,1.8-0.9
			v-0.9h-2l0.9-2.6h4.6L1601.9,77.5L1601.9,77.5z"/>
		<path class="st8" d="M1607,74.6c0,1.9,0.8,2.4,1.8,2.4s1.7-0.5,1.7-2.4v-6.8h3.5v6.6c0,4.3-2.5,5.9-5.2,5.9
			c-2.6,0-5.2-1.6-5.2-5.9v-6.5h3.4L1607,74.6L1607,74.6z"/>
		<path class="st8" d="M1619.5,70.8v2h4.1l-0.9,2.6h-3.2v1.7h5.6V80h-9V67.8h9.3l-1,3H1619.5z"/>
		<polygon class="st9" points="1521.7,37.2 1504.2,37.2 1504.2,41 1510.7,41 1510.7,57.5 1515.3,57.5 1515.3,41 1521.7,41 		"/>
		<path class="st9" d="M1533.6,36.6c-5.9,0-10.7,4.9-10.7,10.8s4.9,10.7,10.8,10.7s10.7-4.8,10.7-10.7
			C1544.3,41.4,1539.5,36.6,1533.6,36.6L1533.6,36.6 M1538.8,50.6c-0.7,1.8-2.3,3.1-4.2,3.5c-0.7,0.1-1.4,0.1-2.1,0
			c-1.9-0.3-3.5-1.6-4.2-3.5c-0.8-2.1-0.8-4.4,0-6.5c0.7-1.8,2.3-3.1,4.2-3.4c0.7-0.1,1.4-0.1,2.1,0c1.9,0.3,3.5,1.6,4.2,3.4
			C1539.6,46.2,1539.6,48.5,1538.8,50.6"/>
		<polyline class="st9" points="1559.1,46.9 1557.1,50 1557.1,57.5 1552.6,57.5 1552.6,50 1544.4,37.2 1549.8,37.2 1554.8,45.9 
			1559.9,37.2 1565.3,37.2 1559.1,46.9 		"/>
		<path class="st9" d="M1565.4,47.3c0-6,4.8-10.8,10.7-10.8c6,0,10.8,4.8,10.8,10.7s-4.8,10.8-10.7,10.8l0,0
			C1570.2,58.1,1565.4,53.3,1565.4,47.3C1565.4,47.4,1565.4,47.3,1565.4,47.3 M1576.2,54.1c0.4,0,0.7,0,1.1-0.1
			c1.9-0.3,3.5-1.7,4.2-3.5c0.8-2.1,0.8-4.4,0-6.5c-0.7-1.8-2.3-3.1-4.2-3.4c-0.7-0.1-1.4-0.1-2.1,0c-1.9,0.3-3.5,1.6-4.2,3.4
			c-0.8,2.1-0.8,4.4,0,6.5c0.7,1.8,2.3,3.1,4.2,3.5C1575.4,54.1,1575.8,54.1,1576.2,54.1"/>
		<path class="st9" d="M1619.5,53h-8.7l-1.7,4.5h-5.1l8.2-20.3h5.7l8.3,20.3h-5.1L1619.5,53z M1618.2,49.4l-3-8l-3,8H1618.2z"/>
		<polygon class="st9" points="1605.4,37.2 1587.9,37.2 1587.9,41 1594.4,41 1594.4,57.5 1599,57.5 1599,41 1605.4,41 		"/>
		
			<linearGradient id="SVGID_10_" gradientUnits="userSpaceOnUse" x1="1444.0017" y1="-625.4" x2="1471.5508" y2="-625.4" gradientTransform="matrix(1 0 0 1 0 672)">
			<stop  offset="0" style="stop-color:#E5AA23"/>
			<stop  offset="1" style="stop-color:#BE2926"/>
		</linearGradient>
		<path class="st16" d="M1471.6,29.4c-10.3,22.4-27.5,27.5-27.5,27.5v6.9c0,0,16.5-3.5,27.5-17.2V29.4z"/>
		<path class="st11" d="M1478,44.9c0-4.1,3.3-7.5,7.4-7.5s7.5,3.3,7.5,7.4s-3.3,7.5-7.4,7.5l0,0C1481.3,52.3,1478,49,1478,44.9z
			 M1485.3,63.8c0,3.8-3.1,6.9-6.9,6.9s-6.9-3.1-6.9-6.9l0,0v-7c0,0-8,5.3-20.7,6.9c0.2,11.4,9.6,20.5,21,20.3
			c11.1-0.2,20.1-9.2,20.3-20.3L1485.3,63.8z M1450.9,46.6v7l1.2-0.7c5.8-3.9,13.7-11,19.5-23.4v-3.4
			C1460.1,25.9,1450.9,35.2,1450.9,46.6z"/>
	</g>
</g>
<rect x="1400.7" y="12.3" class="st12" width="199.4" height="88.6"/>
<rect x="1400.7" y="12.3" class="st12" width="199.4" height="88.6"/>
<g>
	<g>
		<defs>
			<rect id="SVGID_11_" x="1402.2" y="14.3" width="284.3" height="84"/>
		</defs>
		<clipPath id="SVGID_12_">
			<use xlink:href="#SVGID_11_"  style="overflow:visible;"/>
		</clipPath>
		
			<linearGradient id="SVGID_13_" gradientUnits="userSpaceOnUse" x1="1678.072" y1="-569.0267" x2="1677.1362" y2="-636.2189" gradientTransform="matrix(1 0 0 1 0 672)">
			<stop  offset="0" style="stop-color:#751117"/>
			<stop  offset="0.9996" style="stop-color:#BC2026"/>
		</linearGradient>
		<polygon class="st17" points="1710.8,-21.8 1643.7,43.9 1643.7,75.1 1666.8,75.1 1672.7,66.6 1678.1,75.1 1643.7,109.7 
			1690.2,109.7 1710.8,88.5 1710.8,65 1690.2,43.9 1688.5,33.6 1698.9,35.8 1710.8,23.5 		"/>
	</g>
	<g>
		<defs>
			<rect id="SVGID_14_" x="1402.2" y="14.3" width="284.3" height="84"/>
		</defs>
		<clipPath id="SVGID_15_">
			<use xlink:href="#SVGID_14_"  style="overflow:visible;"/>
		</clipPath>
		
			<linearGradient id="SVGID_16_" gradientUnits="userSpaceOnUse" x1="1390.5178" y1="-657.3224" x2="1391.1681" y2="-604.224" gradientTransform="matrix(1 0 0 1 0 672)">
			<stop  offset="0" style="stop-color:#751117"/>
			<stop  offset="0.9996" style="stop-color:#BC2026"/>
		</linearGradient>
		<polygon class="st18" points="1429.8,-22 1352.2,54 1352.2,90.1 1378.9,90.1 1385.8,80.3 1392,90.1 1352.2,130.1 1406,130.1 
			1429.8,105.6 1429.8,78.4 1406,54 1404.1,42 1416.1,44.6 1429.8,30.4 		"/>
	</g>
</g>
</svg>
