<?xml version="1.0" encoding="utf-8"?>
<!-- Generator: Adobe Illustrator 23.0.1, SVG Export Plug-In . SVG Version: 6.00 Build 0)  -->
<svg version="1.1" id="Layer_1" xmlns="http://www.w3.org/2000/svg" xmlns:xlink="http://www.w3.org/1999/xlink" x="0px" y="0px"
	 viewBox="0 0 288.4 92.6" style="enable-background:new 0 0 288.4 92.6;" xml:space="preserve">
<style type="text/css">
	.st0{fill:#FFFFFF;}
</style>
<title>Ресурс 1</title>
<g id="Слой_2">
	<g>
		<path class="st0" d="M113.4,71h-4.1v14.6h-5.5V71h-4.9v-4.7h16L113.4,71z"/>
		<path class="st0" d="M122.2,74.4h5.8v-8.1h5.5v19.3h-5.5V75.5l-1.2,3.5h-4.6v6.6h-5.4V66.3h5.4L122.2,74.4z"/>
		<path class="st0" d="M142.8,82.8l-0.8,2.8h-5.8l4.4-14.6H138l1.6-4.7h10.1l5.3,19.3h-5.8l-1.6-6.3l-1.2,3.5L142.8,82.8z M144,78.1
			h3.4l-1.7-6.7L144,78.1z"/>
		<path class="st0" d="M167.9,71h-2.5v10h2.6v4.7h-10.7V81h2.6V71h-2.6v-4.7h12.1L167.9,71z"/>
		<path class="st0" d="M193,85.6h-11.4V66.3h5.5V81h7.5L193,85.6z"/>
		<path class="st0" d="M202.2,71v3.2h6.5l-1.4,4.2h-5.1V81h8.8v4.7h-14.3V66.3h14.7l-1.6,4.7H202.2z"/>
		<path class="st0" d="M219.8,82.8l-0.7,2.8h-5.8l4.3-14.6h-2.5l1.6-4.7h10.1l5.3,19.3h-5.8l-1.6-6.3l-1.2,3.5L219.8,82.8z
			 M221,78.1h3.4l-1.7-6.7L221,78.1z"/>
		<path class="st0" d="M249.8,81.7c-0.9,2-3.3,4.4-8,4.4c-3.5,0-8.9-2.1-8.9-7v-5.8c0-4.3,4-7.4,9-7.4c2.8,0,5.5,0.6,8,1.7l-1.7,4.4
			c-2-1-4.2-1.5-6.4-1.5c-1.9,0-3.4,1.5-3.5,3.3v5c0,1.3,1.4,2.5,3.2,2.5c1.5,0,2.4-0.5,2.8-1.5v-1.5h-3.2l1.4-4.1h7.2V81.7z"/>
		<path class="st0" d="M257.9,77c0,3,1.3,3.8,2.8,3.8s2.7-0.8,2.7-3.8V66.3h5.5v10.4c0,6.8-4,9.3-8.2,9.3s-8.2-2.5-8.2-9.4V66.3h5.4
			V77z"/>
		<path class="st0" d="M277.6,71v3.2h6.5l-1.4,4.2h-5.1V81h8.8v4.7h-14.3V66.3h14.7l-1.6,4.7H277.6z"/>
		<polygon class="st0" points="123,17.8 95.3,17.8 95.3,23.9 105.5,23.9 105.5,49.9 112.8,49.9 112.8,23.9 123,23.9 		"/>
		<path class="st0" d="M141.7,16.8c-9.4,0-17,7.7-16.9,17.1s7.7,17,17.1,16.9c9.4,0,16.9-7.6,16.9-17
			C158.7,24.5,151.1,16.8,141.7,16.8C141.7,16.8,141.7,16.8,141.7,16.8 M150,39c-1.1,2.9-3.7,4.9-6.7,5.5c-1.1,0.2-2.2,0.2-3.4,0
			c-3-0.5-5.5-2.6-6.6-5.5c-1.3-3.3-1.3-7,0-10.3c1.1-2.9,3.7-4.9,6.7-5.4c1.1-0.2,2.3-0.2,3.4,0c3,0.5,5.5,2.6,6.6,5.4
			C151.3,32,151.3,35.7,150,39"/>
		<polyline class="st0" points="182.1,33.2 179,38 179,49.9 171.7,49.9 171.7,38 158.8,17.8 167.4,17.8 175.4,31.6 183.3,17.8 
			191.9,17.8 182.1,33.2 		"/>
		<path class="st0" d="M192,33.9c0-9.4,7.6-17.1,17-17.1c9.4,0,17.1,7.6,17.1,17c0,9.4-7.6,17.1-17,17.1c0,0,0,0-0.1,0
			C199.7,50.9,192,43.3,192,33.9C192,33.9,192,33.9,192,33.9 M209.1,44.6c0.6,0,1.1-0.1,1.7-0.2c3-0.5,5.5-2.6,6.7-5.5
			c1.3-3.3,1.3-7,0-10.3c-1.1-2.9-3.7-4.9-6.7-5.5c-1.1-0.2-2.2-0.2-3.4,0c-3,0.5-5.6,2.6-6.7,5.5c-1.3,3.3-1.3,7,0,10.3
			c1.1,2.9,3.7,4.9,6.7,5.5C207.9,44.6,208.5,44.6,209.1,44.6"/>
		<path class="st0" d="M277.6,42.8h-13.7l-2.6,7.1h-8.1l13-32.1h9l13.1,32.1h-8.1L277.6,42.8z M275.5,37.2l-4.7-12.7L266,37.2H275.5
			z"/>
		<polygon class="st0" points="255.4,17.8 227.7,17.8 227.7,23.9 237.9,23.9 237.9,49.9 245.2,49.9 245.2,23.9 255.4,23.9 		"/>
		<path class="st0" d="M43.6,5.4C27.2,40.9,0,49,0,49v10.9c0,0,26.1-5.5,43.6-27.2L43.6,5.4z"/>
		<path class="st0" d="M53.7,30c0-6.5,5.2-11.8,11.7-11.8c6.5,0,11.8,5.2,11.8,11.7c0,6.5-5.2,11.8-11.7,11.8c0,0,0,0,0,0
			C59,41.7,53.7,36.5,53.7,30z M65.4,60c0,6-4.9,10.9-10.9,10.9S43.6,66,43.6,60c0,0,0,0,0,0V49c0,0-12.6,8.3-32.7,10.9
			C11.2,78,26.1,92.3,44.1,92C61.8,91.7,76,77.5,76.3,59.9L65.4,60z M10.9,32.7v11l1.9-1.2C22,36.4,34.5,25.2,43.6,5.4V0
			C25.5,0,10.9,14.6,10.9,32.7z"/>
	</g>
</g>
</svg>
