<svg xmlns="http://www.w3.org/2000/svg" xmlns:xlink="http://www.w3.org/1999/xlink" viewBox="0 0 288.35 92.6"><defs><style>.cls-1{fill:#282561;}.cls-2{fill:#e92f2f;}.cls-3{fill:url(#linear-gradient);}.cls-4{fill:#b31f24;}</style><linearGradient id="linear-gradient" y1="32.68" x2="43.58" y2="32.68" gradientUnits="userSpaceOnUse"><stop offset="0" stop-color="#e5aa23"/><stop offset="1" stop-color="#be2926"/></linearGradient></defs><title>Ресурс 1</title><g id="Слой_2" data-name="Слой 2"><g id="Layer_1" data-name="Layer 1"><path class="cls-1" d="M113.36,71H109.3V85.62h-5.49V71H98.94V66.29h16Z"/><path class="cls-1" d="M122.23,74.38h5.83V66.29h5.5V85.62h-5.5V75.54l-1.19,3.51h-4.64v6.57h-5.44V66.29h5.44Z"/><path class="cls-1" d="M142.76,82.81,142,85.62h-5.78L140.58,71H138l1.57-4.66h10.14l5.33,19.33h-5.77l-1.58-6.32-1.18,3.51ZM144,78.14h3.45l-1.66-6.74Z"/><path class="cls-1" d="M167.85,71h-2.46V81H168v4.66H157.27V81h2.65V71h-2.65V66.29h12.15Z"/><path class="cls-1" d="M193,85.62H181.63V66.29h5.5V81h7.49Z"/><path class="cls-1" d="M202.24,71v3.18h6.52l-1.41,4.15h-5.11V81h8.81v4.66H196.74V66.29h14.67L209.84,71Z"/><path class="cls-1" d="M219.81,82.81l-.74,2.81h-5.78L217.63,71h-2.54l1.57-4.66H226.8l5.33,19.33h-5.77l-1.57-6.32-1.19,3.51ZM221,78.14h3.45l-1.66-6.74Z"/><path class="cls-1" d="M249.81,81.65c-.91,2-3.28,4.39-8,4.39-3.51,0-8.93-2.05-8.93-7V73.27c0-4.33,4-7.4,9-7.4a19.55,19.55,0,0,1,8,1.74L248.21,72a13.67,13.67,0,0,0-6.41-1.46,3.42,3.42,0,0,0-3.48,3.34v5c0,1.35,1.38,2.46,3.23,2.46,1.5,0,2.38-.53,2.79-1.46v-1.5h-3.17l1.41-4.14h7.23Z"/><path class="cls-1" d="M257.91,77c0,3,1.33,3.82,2.79,3.82s2.68-.8,2.68-3.76V66.31h5.47V76.7c0,6.85-4,9.31-8.18,9.31s-8.2-2.46-8.2-9.36V66.31h5.44Z"/><path class="cls-1" d="M277.57,71v3.18h6.52l-1.41,4.15h-5.11V81h8.82v4.66H272.08V66.29h14.66L285.17,71Z"/><polygon class="cls-2" points="122.97 17.8 95.3 17.8 95.3 23.91 105.52 23.91 105.51 49.93 112.76 49.93 112.76 23.91 122.97 23.91 122.97 17.8"/><path class="cls-2" d="M141.66,16.84a17,17,0,1,0,17.07,17,17,17,0,0,0-17.07-17M150,39a8.85,8.85,0,0,1-6.69,5.46,9.48,9.48,0,0,1-3.36,0A8.83,8.83,0,0,1,133.3,39a14,14,0,0,1,0-10.31A8.82,8.82,0,0,1,140,23.26a8.9,8.9,0,0,1,3.36,0A8.84,8.84,0,0,1,150,28.71,14.18,14.18,0,0,1,150,39"/><polyline class="cls-2" points="182.07 33.17 178.97 38.04 178.97 49.93 171.72 49.93 171.72 38.04 158.84 17.8 167.38 17.8 175.35 31.62 183.32 17.8 191.85 17.8 182.07 33.17"/><path class="cls-2" d="M192,33.87a17.07,17.07,0,1,1,17.07,17,17,17,0,0,1-17.07-17m17.07,10.76a10.19,10.19,0,0,0,1.68-.15A8.85,8.85,0,0,0,217.42,39a14.18,14.18,0,0,0,0-10.31,8.84,8.84,0,0,0-6.69-5.45,8.85,8.85,0,0,0-3.35,0,8.82,8.82,0,0,0-6.69,5.45,14,14,0,0,0,0,10.31,8.83,8.83,0,0,0,6.69,5.46,10.17,10.17,0,0,0,1.67.15"/><path class="cls-2" d="M277.65,42.84H263.94L261.3,49.9h-8.05l13-32.11h9L288.35,49.9H280.3l-2.65-7.06Zm-2.11-5.63L270.8,24.53l-4.75,12.68Z"/><polygon class="cls-2" points="255.37 17.8 227.7 17.8 227.7 23.91 237.92 23.91 237.91 49.93 245.16 49.93 245.16 23.91 255.37 23.91 255.37 17.8"/><path class="cls-3" d="M43.58,5.45C27.23,40.91,0,49,0,49v10.9s26.11-5.47,43.57-27.24Z"/><path class="cls-4" d="M53.72,30A11.77,11.77,0,1,1,65.49,41.72,11.77,11.77,0,0,1,53.72,30Zm11.64,30a10.89,10.89,0,1,1-21.78,0V49S31,57.34,10.89,59.92a32.69,32.69,0,0,0,65.37,0ZM10.89,32.68v11l1.87-1.15C22,36.43,34.49,25.17,43.58,5.45V0A32.69,32.69,0,0,0,10.89,32.68Z"/></g></g></svg>