<?xml version="1.0" encoding="utf-8"?>
<!-- Generator: Adobe Illustrator 23.0.1, SVG Export Plug-In . SVG Version: 6.00 Build 0)  -->
<svg version="1.1" id="Layer_1" xmlns="http://www.w3.org/2000/svg" xmlns:xlink="http://www.w3.org/1999/xlink" x="0px" y="0px"
	 viewBox="0 0 15 15" style="enable-background:new 0 0 15 15;" xml:space="preserve">
<style type="text/css">
	.st0{fill:#FFFFFF;}
</style>
<path class="st0" d="M7.5,0.5c-3.9,0-7,3.1-7,7c0,3.9,3.1,7,7,7c3.9,0,7-3.1,7-7C14.5,3.6,11.4,0.5,7.5,0.5z M12.8,3.6l-0.5,1.5
	c-0.1,0.4-0.4,0.6-0.7,0.8l-1.1,0.4c-0.4,0.1-0.8,0.1-1.1-0.2L8.2,5.3c-0.3-0.2-0.5-0.6-0.5-1V3.2c0-0.4,0.2-0.7,0.5-1l1.3-1
	C10.8,1.7,12,2.5,12.8,3.6z M5.5,1.3l1.3,1c0.3,0.2,0.5,0.6,0.5,1v1.1c0,0.4-0.2,0.7-0.5,1L5.6,6.1C5.3,6.4,4.9,6.4,4.5,6.3l-1-0.4
	C3.1,5.8,2.9,5.5,2.8,5.2L2.3,3.6C3,2.5,4.2,1.7,5.5,1.3z M3.9,11.3H2.2C1.4,10.2,1,8.9,1,7.5l1.4-1c0.3-0.2,0.7-0.3,1.1-0.2l1,0.4
	c0.3,0.1,0.6,0.4,0.7,0.8l0.4,1.4c0.1,0.4,0.1,0.8-0.2,1.1l-0.6,0.9C4.6,11.1,4.2,11.3,3.9,11.3z M5.5,13.7L5,12.2
	c-0.1-0.4-0.1-0.8,0.2-1.1l0.6-0.9c0.2-0.3,0.6-0.5,1-0.5h1.4c0.4,0,0.7,0.2,1,0.5l0.6,0.9c0.2,0.3,0.3,0.7,0.2,1.1l-0.5,1.6
	c-0.6,0.2-1.3,0.3-2,0.3C6.8,14,6.1,13.9,5.5,13.7z M12.8,11.3h-1.7c-0.4,0-0.7-0.2-1-0.5L9.6,9.9C9.3,9.6,9.3,9.2,9.4,8.8l0.4-1.4
	c0.1-0.4,0.4-0.6,0.7-0.8l1-0.4c0.4-0.1,0.8-0.1,1.1,0.2l1.4,1c0,0,0,0,0,0C14,8.9,13.6,10.2,12.8,11.3z"/>
</svg>
